<svg xmlns="http://www.w3.org/2000/svg" xmlns:xlink="http://www.w3.org/1999/xlink" fill="none" version="1.1" width="127" height="37" viewBox="0 0 127 37"><g><g style="opacity:0.4000000059604645;"><rect x="0.5" y="0.5" width="126" height="36" rx="0" fill="#04274C" fill-opacity="1"/></g><g style="opacity:0.800000011920929;"><rect x="120.5" y="0.5" width="6" height="36" rx="0" fill="#496B90" fill-opacity="0.37420782446861267"/></g><g style="opacity:0.800000011920929;"><rect x="112.5" y="0.5" width="6" height="36" rx="0" fill="#496B90" fill-opacity="0.37420782446861267"/></g><g style="opacity:0.800000011920929;"><rect x="104.5" y="0.5" width="6" height="36" rx="0" fill="#496B90" fill-opacity="0.37420782446861267"/></g><g style="opacity:0.800000011920929;"><rect x="96.5" y="0.5" width="6" height="36" rx="0" fill="#496B90" fill-opacity="0.37420782446861267"/></g><g style="opacity:0.800000011920929;"><rect x="88.5" y="0.5" width="6" height="36" rx="0" fill="#496B90" fill-opacity="0.37420782446861267"/></g><g style="opacity:0.800000011920929;"><rect x="80.5" y="0.5" width="6" height="36" rx="0" fill="#496B90" fill-opacity="0.37420782446861267"/></g><g style="opacity:0.800000011920929;"><rect x="72.5" y="0.5" width="6" height="36" rx="0" fill="#496B90" fill-opacity="0.37420782446861267"/></g><g style="opacity:0.800000011920929;"><rect x="64.5" y="0.5" width="6" height="36" rx="0" fill="#496B90" fill-opacity="0.37420782446861267"/></g><g style="opacity:0.800000011920929;"><rect x="56.5" y="0.5" width="6" height="36" rx="0" fill="#496B90" fill-opacity="0.37420782446861267"/></g><g style="opacity:0.800000011920929;"><rect x="48.5" y="0.5" width="6" height="36" rx="0" fill="#496B90" fill-opacity="0.37420782446861267"/></g><g style="opacity:0.800000011920929;"><rect x="40.5" y="0.5" width="6" height="36" rx="0" fill="#496B90" fill-opacity="0.37420782446861267"/></g><g style="opacity:0.800000011920929;"><rect x="32.5" y="0.5" width="6" height="36" rx="0" fill="#496B90" fill-opacity="0.37420782446861267"/></g><g style="opacity:0.800000011920929;"><rect x="24.5" y="0.5" width="6" height="36" rx="0" fill="#496B90" fill-opacity="0.37420782446861267"/></g><g style="opacity:0.800000011920929;"><rect x="16.5" y="0.5" width="6" height="36" rx="0" fill="#496B90" fill-opacity="0.37420782446861267"/></g><g style="opacity:0.800000011920929;"><rect x="8.5" y="0.5" width="6" height="36" rx="0" fill="#496B90" fill-opacity="0.37420782446861267"/></g><g style="opacity:0.800000011920929;"><rect x="0.5" y="0.5" width="6" height="36" rx="0" fill="#496B90" fill-opacity="0.37420782446861267"/></g><g><path d="M4.5,1C4.77614,1,5,0.776142,5,0.5C5,0.223858,4.77614,0,4.5,0C4.5,0,4.5,1,4.5,1C4.5,1,4.5,1,4.5,1ZM0.9935229999999999,0.5C0.9935229999999999,0.5,0.9935229999999999,0,0.9935229999999999,0C0.839275,0,0.693661,0.071193,0.5989291,0.192923C0.5989291,0.192923,0.9935229999999999,0.5,0.9935229999999999,0.5C0.9935229999999999,0.5,0.9935229999999999,0.5,0.9935229999999999,0.5ZM0.5,1.134176C0.5,1.134176,0.10540699999999997,0.8271,0.10540699999999997,0.8271C0.037092000000000014,0.914884,0,1.022942,0,1.134176C0,1.134176,0.5,1.134176,0.5,1.134176C0.5,1.134176,0.5,1.134176,0.5,1.134176ZM0,4.5C0,4.77614,0.223858,5,0.5,5C0.776142,5,1,4.77614,1,4.5C1,4.5,0,4.5,0,4.5C0,4.5,0,4.5,0,4.5ZM4.5,0C4.5,0,0.9935229999999999,0,0.9935229999999999,0C0.9935229999999999,0,0.9935229999999999,1,0.9935229999999999,1C0.9935229999999999,1,4.5,1,4.5,1C4.5,1,4.5,0,4.5,0C4.5,0,4.5,0,4.5,0ZM0.5989291,0.192923C0.5989291,0.192923,0.10540699999999997,0.8271,0.10540699999999997,0.8271C0.10540699999999997,0.8271,0.894593,1.4412530000000001,0.894593,1.4412530000000001C0.894593,1.4412530000000001,1.3881160000000001,0.807077,1.3881160000000001,0.807077C1.3881160000000001,0.807077,0.5989291,0.192923,0.5989291,0.192923C0.5989291,0.192923,0.5989291,0.192923,0.5989291,0.192923ZM0,1.134176C0,1.134176,0,4.5,0,4.5C0,4.5,1,4.5,1,4.5C1,4.5,1,1.134176,1,1.134176C1,1.134176,0,1.134176,0,1.134176C0,1.134176,0,1.134176,0,1.134176Z" fill="#51D1FF" fill-opacity="1"/></g><g><path d="M122.5,0C122.223858,0,122,0.223858,122,0.5C122,0.776142,122.223858,1,122.5,1C122.5,1,122.5,0,122.5,0C122.5,0,122.5,0,122.5,0ZM126.0116,0.5C126.0116,0.5,126.40787,0.19508599999999998,126.40787,0.19508599999999998C126.31322,0.07207799999999998,126.16681,0,126.0116,0C126.0116,0,126.0116,0.5,126.0116,0.5C126.0116,0.5,126.0116,0.5,126.0116,0.5ZM126.5,1.134727C126.5,1.134727,127,1.134727,127,1.134727C127,1.02443,126.96353,0.917227,126.89627,0.829813C126.89627,0.829813,126.5,1.134727,126.5,1.134727C126.5,1.134727,126.5,1.134727,126.5,1.134727ZM126,4.5C126,4.77614,126.22386,5,126.5,5C126.77614,5,127,4.77614,127,4.5C127,4.5,126,4.5,126,4.5C126,4.5,126,4.5,126,4.5ZM122.5,1C122.5,1,126.0116,1,126.0116,1C126.0116,1,126.0116,0,126.0116,0C126.0116,0,122.5,0,122.5,0C122.5,0,122.5,1,122.5,1C122.5,1,122.5,1,122.5,1ZM125.61533,0.804914C125.61533,0.804914,126.10373,1.439641,126.10373,1.439641C126.10373,1.439641,126.89627,0.829813,126.89627,0.829813C126.89627,0.829813,126.40787,0.19508599999999998,126.40787,0.19508599999999998C126.40787,0.19508599999999998,125.61533,0.804914,125.61533,0.804914C125.61533,0.804914,125.61533,0.804914,125.61533,0.804914ZM126,1.134727C126,1.134727,126,4.5,126,4.5C126,4.5,127,4.5,127,4.5C127,4.5,127,1.134727,127,1.134727C127,1.134727,126,1.134727,126,1.134727C126,1.134727,126,1.134727,126,1.134727Z" fill="#51D1FF" fill-opacity="1"/></g><g><path d="M122.5,36C122.223858,36,122,36.22386,122,36.5C122,36.77614,122.223858,37,122.5,37C122.5,37,122.5,36,122.5,36C122.5,36,122.5,36,122.5,36ZM126.00709,36.5C126.00709,36.5,126.00709,37,126.00709,37C126.16144,37,126.30714,36.92871,126.40186,36.80684C126.40186,36.80684,126.00709,36.5,126.00709,36.5C126.00709,36.5,126.00709,36.5,126.00709,36.5ZM126.5,35.86582C126.5,35.86582,126.89478,36.17266,126.89478,36.17266C126.96298,36.08492,127,35.97696,127,35.86582C127,35.86582,126.5,35.86582,126.5,35.86582C126.5,35.86582,126.5,35.86582,126.5,35.86582ZM127,32.5C127,32.223858,126.77614,32,126.5,32C126.22386,32,126,32.223858,126,32.5C126,32.5,127,32.5,127,32.5C127,32.5,127,32.5,127,32.5ZM122.5,37C122.5,37,126.00709,37,126.00709,37C126.00709,37,126.00709,36,126.00709,36C126.00709,36,122.5,36,122.5,36C122.5,36,122.5,37,122.5,37C122.5,37,122.5,37,122.5,37ZM126.40186,36.80684C126.40186,36.80684,126.89478,36.17266,126.89478,36.17266C126.89478,36.17266,126.10522,35.55898,126.10522,35.55898C126.10522,35.55898,125.61231,36.19316,125.61231,36.19316C125.61231,36.19316,126.40186,36.80684,126.40186,36.80684C126.40186,36.80684,126.40186,36.80684,126.40186,36.80684ZM127,35.86582C127,35.86582,127,32.5,127,32.5C127,32.5,126,32.5,126,32.5C126,32.5,126,35.86582,126,35.86582C126,35.86582,127,35.86582,127,35.86582C127,35.86582,127,35.86582,127,35.86582Z" fill="#51D1FF" fill-opacity="1"/></g><g><path d="M4.5,37C4.77614,37,5,36.77614,5,36.5C5,36.22386,4.77614,36,4.5,36C4.5,36,4.5,37,4.5,37C4.5,37,4.5,37,4.5,37ZM0.9935229999999999,36.5C0.9935229999999999,36.5,0.5989291,36.80708,0.5989291,36.80708C0.693661,36.92881,0.839275,37,0.9935229999999999,37C0.9935229999999999,37,0.9935229999999999,36.5,0.9935229999999999,36.5C0.9935229999999999,36.5,0.9935229999999999,36.5,0.9935229999999999,36.5ZM0.5,35.86582C0.5,35.86582,0,35.86582,0,35.86582C0,35.97706,0.037092000000000014,36.08512,0.10540699999999997,36.1729C0.10540699999999997,36.1729,0.5,35.86582,0.5,35.86582C0.5,35.86582,0.5,35.86582,0.5,35.86582ZM1,32.5C1,32.223858,0.776142,32,0.5,32C0.223858,32,0,32.223858,0,32.5C0,32.5,1,32.5,1,32.5C1,32.5,1,32.5,1,32.5ZM4.5,36C4.5,36,0.9935229999999999,36,0.9935229999999999,36C0.9935229999999999,36,0.9935229999999999,37,0.9935229999999999,37C0.9935229999999999,37,4.5,37,4.5,37C4.5,37,4.5,36,4.5,36C4.5,36,4.5,36,4.5,36ZM1.3881160000000001,36.19292C1.3881160000000001,36.19292,0.894593,35.55875,0.894593,35.55875C0.894593,35.55875,0.10540699999999997,36.1729,0.10540699999999997,36.1729C0.10540699999999997,36.1729,0.5989291,36.80708,0.5989291,36.80708C0.5989291,36.80708,1.3881160000000001,36.19292,1.3881160000000001,36.19292C1.3881160000000001,36.19292,1.3881160000000001,36.19292,1.3881160000000001,36.19292ZM1,35.86582C1,35.86582,1,32.5,1,32.5C1,32.5,0,32.5,0,32.5C0,32.5,0,35.86582,0,35.86582C0,35.86582,1,35.86582,1,35.86582C1,35.86582,1,35.86582,1,35.86582Z" fill="#51D1FF" fill-opacity="1"/></g></g></svg>