<svg xmlns="http://www.w3.org/2000/svg" xmlns:xlink="http://www.w3.org/1999/xlink" fill="none" version="1.1" width="24" height="24" viewBox="0 0 24 24"><defs><clipPath id="master_svg0_5_55021"><rect x="0" y="24" width="24" height="24" rx="0"/></clipPath></defs><g transform="matrix(0,-1,1,0,-24,24)" clip-path="url(#master_svg0_5_55021)"><g><path d="M11.29289,29.292893C11.68342,28.9023689,12.31658,28.9023689,12.70711,29.292893C12.70711,29.292893,17.7071,34.29289,17.7071,34.29289C18.0976,34.68342,18.0976,35.31658,17.7071,35.70711C17.3166,36.09763,16.6834,36.09763,16.2929,35.70711C16.2929,35.70711,12,31.41421,12,31.41421C12,31.41421,7.70711,35.70711,7.70711,35.70711C7.31658,36.09763,6.683417,36.09763,6.292893,35.70711C5.9023689,35.31658,5.9023689,34.68342,6.292893,34.29289C6.292893,34.29289,11.29289,29.292893,11.29289,29.292893C11.29289,29.292893,11.29289,29.292893,11.29289,29.292893ZM6.292893,41.2929C6.292893,41.2929,11.29289,36.29289,11.29289,36.29289C11.68342,35.90237,12.31658,35.90237,12.70711,36.29289C12.70711,36.29289,17.7071,41.2929,17.7071,41.2929C18.0976,41.6834,18.0976,42.3166,17.7071,42.7071C17.3166,43.0976,16.6834,43.0976,16.2929,42.7071C16.2929,42.7071,12,38.41421,12,38.41421C12,38.41421,7.70711,42.7071,7.70711,42.7071C7.31658,43.0976,6.683417,43.0976,6.292893,42.7071C5.9023689,42.3166,5.9023689,41.6834,6.292893,41.2929C6.292893,41.2929,6.292893,41.2929,6.292893,41.2929Z" fill-rule="evenodd" fill="#01C2FF" fill-opacity="1"/></g></g></svg>