<svg xmlns="http://www.w3.org/2000/svg" xmlns:xlink="http://www.w3.org/1999/xlink" fill="none" version="1.1" width="12" height="12" viewBox="0 0 12 12"><defs><clipPath id="master_svg0_5_15332"><rect x="0" y="0" width="12" height="12" rx="0"/></clipPath><linearGradient x1="0.5" y1="0" x2="0.5" y2="1" id="master_svg1_5_15360"><stop offset="0%" stop-color="#17FCFE" stop-opacity="1"/><stop offset="100%" stop-color="#00A8FE" stop-opacity="1"/></linearGradient><linearGradient x1="0.5" y1="0" x2="0.5" y2="1" id="master_svg2_5_15360"><stop offset="0%" stop-color="#17FCFE" stop-opacity="1"/><stop offset="100%" stop-color="#00A8FE" stop-opacity="1"/></linearGradient></defs><g clip-path="url(#master_svg0_5_15332)"><g><path d="M0.553993,5.0220969C0.243997,5.128921,0,5.338805,0,5.587277L0,6.74493C0,6.9825800000000005,0.227497,7.1919900000000005,0.553993,7.31058C0.671491,7.35199,0.801489,7.33411,0.903988,7.26164C1.00798,7.18487,1.06879,7.0674399999999995,1.06899,6.9430499999999995L1.06899,5.389628C1.06879,5.265239,1.00798,5.147809,0.903988,5.071038C0.804241,4.99868897,0.67178,4.9801662,0.553993,5.0220969ZM11.4908,5.106804C11.3733,5.0653571,11.2413,5.0840452,11.1419,5.156216C11.0379,5.232686,10.977,5.349725,10.9764,5.473865L10.9764,7.0625800000000005C10.6564,7.26352,10.3014,7.40329,9.92887,7.474819999999999L8.34489,7.52517C8.25783,7.52947,8.17433,7.559060000000001,8.10589,7.60988C8.05645,7.65182,8.02812,7.71147,8.02789,7.77412C8.02789,7.89788,8.18389,8,8.36089,8L9.92887,7.94353C10.4729,7.8686799999999995,10.9909,7.675129999999999,11.4413,7.37835C11.7683,7.27105,11.9958,7.061640000000001,11.9958,6.8136399999999995L11.9958,5.66069C12.0338,5.423041,11.8073,5.214099,11.4918,5.106804L11.4908,5.106804ZM4.81494,5.4061L4.88093,5.4061C5.16393,5.4061,5.30793,5.529865,5.30793,5.768455L5.30793,6.41175C5.30793,6.65505,5.16393,6.77364,4.88143,6.77364L4.81494,6.77364C4.52694,6.77364,4.38844,6.65599,4.38844,6.41222L4.38844,5.767985C4.38844,5.530807,4.52644,5.405629,4.81494,5.4061ZM7.4019,5.405629L7.4689,5.405629C7.7514,5.405629,7.89539,5.529866,7.89539,5.767985L7.89539,6.41175C7.89539,6.65505,7.7514,6.77364,7.4694,6.77364L7.4019,6.77364C7.1139,6.77364,6.97591,6.65599,6.97591,6.41222L6.97591,5.767985C6.97591,5.530807,7.1139,5.405629,7.4019,5.405629Z" fill="url(#master_svg1_5_15360)" fill-opacity="1"/></g><g><path d="M7.76658,1L4.29113,1C2.47627,1,1.000358859,2.93182,1.000358859,4.87L1.000358859,6.49318C0.9735999,8.40118,2.44637,9.96982,4.29113,10L7.76658,10C8.923490000000001,9.96506,9.98334,9.32553,10.58147,8.30218C10.61016,8.27323,10.61016,8.2263,10.58147,8.19735C10.56466,8.18868,10.54475,8.18868,10.52795,8.19735L10.16487,8.25929L8.974910000000001,8.25929C8.73114,8.33985,8.47586,8.37921,8.219380000000001,8.37576L4.1720299999999995,8.37576C3.2869,8.33976,2.57019,7.62135,2.5077499999999997,6.70812C2.4453199999999997,5.79488,3.05709,4.97853,3.92805,4.81388C4.02879,3.70476,4.972160000000001,2.88312,6.04669,2.96888L6.23138,2.96888C7.30592,2.86512,8.26187,3.67353,8.37363,4.78318L8.37363,4.8202300000000005C9.1512,4.92506,9.76035,5.56512,9.84954,6.37035L9.84954,6.56729L9.84954,6.53606C9.84954,6.70706,9.82751,6.877,9.78448,7.04112C9.84377,7.084,9.94556,7.04112,10.02794,7.04112C10.20859,7.03367,10.38797,7.00705,10.5631,6.9617C10.73048,6.90453,10.87896,6.805,10.99859,6.67212L10.99859,4.86947C11.0521,2.93182,9.58196,1,7.76658,1Z" fill="url(#master_svg2_5_15360)" fill-opacity="1"/></g></g></svg>