<svg xmlns="http://www.w3.org/2000/svg" xmlns:xlink="http://www.w3.org/1999/xlink" fill="none" version="1.1" width="24" height="24" viewBox="0 0 24 24"><defs><clipPath id="master_svg0_5_55047"><rect x="0" y="0" width="24" height="24" rx="0"/></clipPath><linearGradient x1="0.5" y1="-3.0616171314629196e-17" x2="0.5" y2="1" id="master_svg1_5_30161"><stop offset="0%" stop-color="#FFFFFF" stop-opacity="1"/><stop offset="27.959829568862915%" stop-color="#E8FDFF" stop-opacity="1"/><stop offset="100%" stop-color="#1CD3E2" stop-opacity="1"/></linearGradient></defs><g clip-path="url(#master_svg0_5_55047)"><g></g><g><path d="M12,22C6.477,22,2,17.523,2,12C2,6.477,6.477,2,12,2C17.523,2,22,6.477,22,12C22,17.523,17.523,22,12,22C12,22,12,22,12,22ZM12,20C14.1217,20,16.156599999999997,19.1571,17.6569,17.6569C19.1571,16.156599999999997,20,14.1217,20,12C20,9.87827,19.1571,7.84344,17.6569,6.34315C16.156599999999997,4.84285,14.1217,4,12,4C9.87827,4,7.84344,4.84285,6.34315,6.34315C4.84285,7.84344,4,9.87827,4,12C4,14.1217,4.84285,16.156599999999997,6.34315,17.6569C7.84344,19.1571,9.87827,20,12,20C12,20,12,20,12,20C12,20,12,20,12,20ZM13,12C13,12,17,12,17,12C17,12,17,14,17,14C17,14,11,14,11,14C11,14,11,7,11,7C11,7,13,7,13,7C13,7,13,12,13,12C13,12,13,12,13,12Z" fill="url(#master_svg1_5_30161)" fill-opacity="1"/></g></g></svg>