<svg xmlns="http://www.w3.org/2000/svg" xmlns:xlink="http://www.w3.org/1999/xlink" fill="none" version="1.1" width="24" height="24" viewBox="0 0 24 24"><defs><clipPath id="master_svg0_5_53264"><rect x="0" y="0" width="24" height="24" rx="0"/></clipPath><clipPath id="master_svg1_5_53264/5_30165"><rect x="0" y="0" width="24" height="24" rx="0"/></clipPath></defs><g clip-path="url(#master_svg0_5_53264)"><g></g><g clip-path="url(#master_svg1_5_53264/5_30165)"><g><path d="M7.961982890625,15.4814961328125C7.076102890625,15.4820461328125,6.209962890625,15.2198561328125,5.473112890625,14.7280961328125C4.7362628906249995,14.2363261328125,4.161812890625,13.537076132812501,3.822419890625,12.7187861328125C3.483026430625,11.900506132812499,3.393939790625,10.9999461328125,3.566428090625,10.1310161328125C3.738916890625,9.2620961328125,4.165230890625,8.4638461328125,4.7914428906249995,7.8372361328124995C5.4176628906249995,7.2106351328125005,6.215642890625,6.7838241328125,7.084462890625,6.6107950328125C7.953282890625,6.4377658328125,8.853892890625,6.5262918828125,9.672392890625,6.8651751328125C10.490892890625,7.2040591328125,11.190502890625,7.7780761328125,11.682722890625,8.5146161328125C12.174952890625,9.2511561328125,12.437672890625,10.117136132812501,12.437672890625,11.003016132812501C12.436942890625,12.1900761328125,11.965242890625,13.3283461328125,11.126132890625,14.1679861328125C10.287012890625,15.0076261328125,9.149042890625001,15.4800261328125,7.961982890625,15.4814961328125C7.961982890625,15.4814961328125,7.961982890625,15.4814961328125,7.961982890625,15.4814961328125C7.961982890625,15.4814961328125,7.961982890625,15.4814961328125,7.961982890625,15.4814961328125Z" fill="#FFCE54" fill-opacity="1"/></g><g><path d="M7.9620564547729495,6.0284431629375C6.977396454772949,6.0278919938125,6.014696454772949,6.3194093828125,5.19574645477295,6.8661133828125C4.376806454772949,7.4128123828125005,3.738416454772949,8.1901423828125,3.361348454772949,9.0997423828125C2.9842809247729494,10.0093423828125,2.8854783547729492,11.0103523828125,3.077440854772949,11.976112382812499C3.269403454772949,12.9418823828125,3.7435044547729492,13.8290123828125,4.439766454772949,14.5252723828125C5.136026454772949,15.2215323828125,6.023156454772949,15.6956323828125,6.988926454772949,15.8875923828125C7.954686454772949,16.079542382812498,8.95569645477295,15.9807523828125,9.865296454772949,15.6036923828125C10.77489645477295,15.2266223828125,11.55221645477295,14.5882323828125,12.098926454772949,13.7692923828125C12.64562645477295,12.9503423828125,12.937146454772948,11.9876423828125,12.93659645477295,11.002982382812501C12.93585645477295,9.6838823828125,12.411516454772949,8.4190123828125,11.478766454772948,7.4862723828124995C10.54602645477295,6.5535203828125,9.28115645477295,6.0291815398125,7.9620564547729495,6.0284431629375C7.9620564547729495,6.0284431629375,7.9620564547729495,6.0284431629375,7.9620564547729495,6.0284431629375C7.9620564547729495,6.0284431629375,7.9620564547729495,6.0284431629375,7.9620564547729495,6.0284431629375ZM10.77677645477295,13.8177123828125C10.12557645477295,14.4696123828125,9.268466454772948,14.8755323828125,8.351516454772948,14.9662923828125C7.434556454772949,15.0570423828125,6.514506454772949,14.8270223828125,5.748146454772949,14.3154223828125C4.98178645477295,13.8038223828125,4.416536454772949,13.042302382812501,4.148746454772949,12.160642382812501C3.880948454772949,11.2789823828125,3.927169454772949,10.3317323828125,4.279536454772949,9.4803323828125C4.631896454772949,8.6289323828125,5.268596454772949,7.9260623828125,6.08111645477295,7.4915023828125005C6.893646454772949,7.0569423828125,7.831726454772949,6.9175943828125,8.73548645477295,7.0971923828125C9.63925645477295,7.2767923828125,10.452776454772948,7.7642323828125,11.037416454772949,8.4764323828125C11.62204645477295,9.1886423828125,11.94162645477295,10.0815523828125,11.941686454772949,11.002982382812501C11.94308645477295,11.5258523828125,11.84086645477295,12.043802382812501,11.640926454772949,12.5269323828125C11.440976454772949,13.0100523828125,11.14727645477295,13.4487623828125,10.77677645477295,13.8177123828125C10.77677645477295,13.8177123828125,10.77677645477295,13.8177123828125,10.77677645477295,13.8177123828125C10.77677645477295,13.8177123828125,10.77677645477295,13.8177123828125,10.77677645477295,13.8177123828125Z" fill="#F6BB42" fill-opacity="1"/></g><g><path d="M3.3888037890625,14.873942664337159C3.3888037890625,14.873942664337159,2.3325827890625,15.930192664337158,2.3325827890625,15.930192664337158C2.2394532890625,16.023292664337156,2.1871337890625,16.149592664337156,2.1871337890625,16.28129266433716C2.1871337890625004,16.41299266433716,2.2394532890625,16.539292664337157,2.3325827890625,16.632492664337157C2.4257117890625,16.725592664337157,2.5520217890625,16.77789266433716,2.6837267890625,16.77789266433716C2.8154307890625,16.77789266433716,2.9417417890625,16.725592664337157,3.0348707890625,16.632492664337157C3.0348707890625,16.632492664337157,4.0910937890625,15.584592664337158,4.0910937890625,15.584592664337158C4.1738937890625,15.489392664337158,4.2175737890625005,15.366392664337159,4.2133237890625,15.240392664337158C4.2090737890625,15.114272664337157,4.1572137890625,14.994482664337157,4.0681937890625,14.905102664337159C3.9791737890625,14.815732664337158,3.8595937890625,14.763402664337159,3.7335337890625,14.758652664337157C3.6074737890625,14.753902664337158,3.4842937890625,14.797092664337159,3.3888037890625,14.879522664337157C3.3888037890625,14.879522664337157,3.3888037890625,14.873942664337159,3.3888037890625,14.873942664337159C3.3888037890625,14.873942664337159,3.3888037890625,14.873942664337159,3.3888037890625,14.873942664337159ZM13.5887337890625,5.376331664337158C13.5428337890625,5.329819664337158,13.4881337890625,5.292888164337159,13.4278337890625,5.267680664337158C13.3675337890625,5.242473264337158,13.3029337890625,5.229492664337158,13.2375337890625,5.229492664337158C13.1722337890625,5.229492664337158,13.1075337890625,5.242473264337158,13.0472337890625,5.267680664337158C12.9869337890625,5.292888164337159,12.9323337890625,5.329819664337158,12.8864337890625,5.376331664337158C12.8864337890625,5.376331664337158,11.8301937890625,6.429762664337158,11.8301937890625,6.429762664337158C11.7366937890625,6.524002664337158,11.6844637890625,6.651522664337158,11.6849837890625,6.784272664337158C11.6855037890625,6.917022664337158,11.7387437890625,7.044132664337158,11.8329837890625,7.137622664337158C11.9272237890625,7.231122664337159,12.0547437890625,7.283362664337158,12.1875337890625,7.282832664337159C12.3202337890625,7.282312664337159,12.4473337890625,7.229072664337158,12.5408337890625,7.1348426643371585C12.5408337890625,7.1348426643371585,13.5942337890625,6.0786206643371585,13.5942337890625,6.0786206643371585C13.6404337890625,6.032363664337158,13.6769337890625,5.977399664337158,13.7016337890625,5.916919664337158C13.7264337890625,5.856439664337159,13.7388337890625,5.791649664337158,13.7383337890625,5.726310664337158C13.7378337890625,5.660971664337159,13.7243337890625,5.596387664337159,13.6986337890625,5.5363076643371585C13.6729337890625,5.476227664337158,13.6355337890625,5.4218496643371585,13.5887337890625,5.376331664337158C13.5887337890625,5.376331664337158,13.5887337890625,5.376331664337158,13.5887337890625,5.376331664337158C13.5887337890625,5.376331664337158,13.5887337890625,5.376331664337158,13.5887337890625,5.376331664337158Z" fill="#FFCE54" fill-opacity="1"/></g><g><path d="M7.9620329921875,3.0437316895142246C7.8302119921875,3.043729627813125,7.7037489921875,3.0959038894531252,7.6102759921875,3.188853689453125C7.5168038921875,3.281804689453125,7.4639218721875,3.407973689453125,7.4631854421875,3.539792689453125C7.4631854421875,3.539792689453125,7.4631854421875,5.033551689453125,7.4631854421875,5.033551689453125C7.4580579621875,5.102001689453125,7.4671154721875,5.1707816894531256,7.4897906921875,5.2355816894531255C7.5124659921875,5.300371689453125,7.5482710921875,5.359791689453125,7.5949649921875,5.410121689453125C7.6416599921875,5.460441689453125,7.6982369921875,5.500581689453125,7.7611589921875,5.528031689453125C7.8240799921875,5.555481689453125,7.8919909921875,5.569651689453125,7.9606399921875,5.569651689453125C8.0292889921875,5.569651689453125,8.0971989921875,5.555481689453125,8.1601209921875,5.528031689453125C8.2230419921875,5.500581689453125,8.2796199921875,5.460441689453125,8.326313992187501,5.410121689453125C8.3730079921875,5.359791689453125,8.4088139921875,5.300371689453125,8.4314889921875,5.2355816894531255C8.4541639921875,5.1707816894531256,8.4632219921875,5.102001689453125,8.4580939921875,5.033551689453125C8.4580939921875,5.033551689453125,8.4580939921875,3.539792689453125,8.4580939921875,3.539792689453125C8.4580939921875,3.408228689453125,8.4058309921875,3.282053689453125,8.3128009921875,3.189024689453125C8.2197719921875,3.095995089453125,8.0935969921875,3.043731694153575,7.9620329921875,3.0437316895142246C7.9620329921875,3.0437316895142246,7.9620329921875,3.0437316895142246,7.9620329921875,3.0437316895142246C7.9620329921875,3.0437316895142246,7.9620329921875,3.0437316895142246,7.9620329921875,3.0437316895142246Z" fill="#F6BB42" fill-opacity="1"/></g><g><path d="M3.3888037890625,7.134843121490478C3.4346637890625002,7.181253121490478,3.4893637890624998,7.2180031214904785,3.5496837890624997,7.242893121490479C3.6100037890625,7.267783121490479,3.6746937890625,7.280323121490479,3.7399437890625,7.2797531214904785C3.8353737890625,7.276653121490479,3.9279137890625,7.246223121490479,4.0065637890625005,7.192083121490478C4.0852137890625,7.137943121490478,4.1466737890625005,7.062373121490479,4.1836537890625,6.974343121490478C4.2206237890625005,6.8863131214904785,4.231553789062501,6.7895131214904785,4.2151437890625,6.695453121490479C4.1987437890625,6.601393121490478,4.1556837890625005,6.514013121490478,4.0910937890625,6.443703121490478C4.0910937890625,6.443703121490478,3.0348707890625,5.376332121490479,3.0348707890625,5.376332121490479C2.9887577890625,5.330218921490479,2.9340137890625,5.293640121490479,2.8737647890625,5.268684021490478C2.8135147890625,5.243727821490478,2.7489397890625,5.230883121976357,2.6837267890625,5.2308831214904785C2.6185127890625,5.2308831210046005,2.5539387890625,5.243727821490478,2.4936887890625,5.268684021490478C2.4334397890625,5.293640121490479,2.3786957890625002,5.330218921490479,2.3325827890625,5.376332121490479C2.2864695890625,5.422445121490479,2.2498907890625,5.477189121490478,2.2249346890625,5.537438121490479C2.1999784890625,5.597688121490479,2.187133788576622,5.662262121490478,2.1871337890625004,5.727476121490478C2.187133789548379,5.792689121490478,2.1999784890625,5.857264121490479,2.2249346890625,5.917514121490479C2.2498907890625,5.9777631214904785,2.2864695890625,6.032507121490479,2.3325827890625,6.078620121490479C2.3325827890625,6.078620121490479,3.3888037890625,7.134843121490478,3.3888037890625,7.134843121490478C3.3888037890625,7.134843121490478,3.3888037890625,7.134843121490478,3.3888037890625,7.134843121490478Z" fill="#FFCE54" fill-opacity="1"/></g><g><path d="M2.4886885546875,11.0029471640625C2.4879585546875,10.8711281640625,2.4350785546875,10.7449591640625,2.3415985546875,10.6520091640625C2.2481285546875,10.5590589640625,2.1216685546875,10.5068845540625,1.9898485546875002,10.5068866140625C1.9898485546875002,10.5068866140625,0.4988755546875,10.5068866140625,0.4988755546875,10.5068866140625C0.4304185546875,10.5017591340625,0.3616395546875,10.5108166440625,0.2968435546875,10.5334918640625C0.2320475546875,10.5561671640625,0.1726285546875,10.5919722640625,0.12230655468750001,10.6386661640625C0.0719845546875,10.6853611640625,0.031840954687500006,10.7419381640625,0.0043893546874999995,10.8048601640625C-0.0230622453125,10.8677811640625,-0.037231445312500014,10.9356921640625,-0.0372314453125,11.0043411640625C-0.0372314453125,11.0729901640625,-0.0230622453125,11.1409001640625,0.0043893546874999995,11.2038221640625C0.031840954687500006,11.2667431640625,0.0719845546875,11.3233211640625,0.12230655468750001,11.370015164062501C0.1726285546875,11.4167091640625,0.2320475546875,11.4525151640625,0.2968435546875,11.4751901640625C0.3616395546875,11.4978651640625,0.4304185546875,11.5069231640625,0.4988755546875,11.5017951640625C0.4988755546875,11.5017951640625,1.9898485546875002,11.5017951640625,1.9898485546875002,11.5017951640625C2.1221485546875,11.5017951640625,2.2490285546875,11.4492381640625,2.3425785546875,11.3556861640625C2.4361385546875,11.2621341640625,2.4886885546875,11.1352501640625,2.4886885546875,11.0029471640625C2.4886885546875,11.0029471640625,2.4886885546875,11.0029471640625,2.4886885546875,11.0029471640625Z" fill="#F6BB42" fill-opacity="1"/></g><g><path d="M17.849825724029543,8.896134111970214C17.02352572402954,8.895164441970214,16.20582572402954,9.064413831970215,15.44782572402954,9.393330831970214C14.689725724029541,9.722247831970215,14.007575724029541,10.203786831970215,13.443805724029541,10.807916831970214C13.013385724029542,10.316286831970215,12.443525724029541,9.967296831970215,11.809985724029541,9.807326831970215C11.176445724029541,9.647360831970214,10.509225724029541,9.683997831970215,9.89700572402954,9.912366831970214C9.28478572402954,10.140736831970216,8.756575724029542,10.550026831970214,8.382575724029541,11.085836831970216C8.008565724029541,11.621636831970214,7.806495724029541,12.258576831970215,7.8032057240295405,12.911996831970214C7.8032057240295405,12.911996831970214,7.8032057240295405,12.992816831970215,7.8032057240295405,12.992816831970215C6.826205724029541,13.191696831970216,5.957915724029541,13.746426831970215,5.366829724029541,14.549366831970215C4.775744724029541,15.352296831970214,4.504009124029541,16.346176831970215,4.604352624029541,17.338156831970217C4.704695724029541,18.330136831970215,5.169962724029541,19.249466831970217,5.909875724029541,19.917766831970216C6.649775724029541,20.586066831970214,7.611565724029541,20.955666831970213,8.608605724029541,20.954866831970214C8.608605724029541,20.954866831970214,17.849825724029543,20.954866831970214,17.849825724029543,20.954866831970214C18.652925724029544,20.972166831970213,19.45132572402954,20.828866831970217,20.19832572402954,20.533466831970216C20.94522572402954,20.238066831970215,21.62572572402954,19.796566831970217,22.19972572402954,19.234666831970216C22.773825724029543,18.672826831970212,23.229925724029542,18.002016831970217,23.54122572402954,17.261566831970214C23.85262572402954,16.521126831970214,24.01302572402954,15.725966831970215,24.01302572402954,14.922716831970215C24.01302572402954,14.119466831970215,23.85262572402954,13.324306831970215,23.54122572402954,12.583856831970214C23.229925724029542,11.843416831970215,22.773825724029543,11.172596831970214,22.19972572402954,10.610756831970214C21.62572572402954,10.048906831970214,20.94522572402954,9.607340831970214,20.19832572402954,9.311951831970214C19.45132572402954,9.016562831970214,18.652925724029544,8.873298231970216,17.849825724029543,8.890560341970215C17.849825724029543,8.890560341970215,17.849825724029543,8.896134111970214,17.849825724029543,8.896134111970214C17.849825724029543,8.896134111970214,17.849825724029543,8.896134111970214,17.849825724029543,8.896134111970214Z" fill="#F2F2F2" fill-opacity="1"/></g><g><path d="M21.5870439453125,10.189236640930176C22.2900439453125,11.078511640930175,22.7281439453125,12.147916640930175,22.8511439453125,13.274796640930177C22.9741439453125,14.401686640930176,22.7770439453125,15.540416640930175,22.2824439453125,16.560416640930175C21.7878439453125,17.580416640930174,21.0158439453125,18.440366640930176,20.0548439453125,19.041646640930175C19.0939439453125,19.642936640930174,17.9829439453125,19.961206640930175,16.849343945312498,19.959956640930177C16.849343945312498,19.959956640930177,7.605353945312499,19.959956640930177,7.605353945312499,19.959956640930177C6.7787939453125,19.963516640930173,5.9715259453125,19.710326640930177,5.2950439453125,19.235376640930177C5.6652659453125,19.766516640930178,6.1584189453125,20.200236640930175,6.7324739453125,20.499636640930177C7.306523945312501,20.799036640930176,7.9444539453125,20.955236640930174,8.5918939453125,20.954836640930175C8.5918939453125,20.954836640930175,17.8498439453125,20.954836640930175,17.8498439453125,20.954836640930175C19.1032439453125,20.955336640930177,20.3255439453125,20.565236640930173,21.3469439453125,19.838836640930175C22.3684439453125,19.112466640930176,23.1381439453125,18.085896640930176,23.5491439453125,16.901846640930174C23.9601439453125,15.717796640930175,23.9920439453125,14.435106640930176,23.6404439453125,13.232086640930175C23.2887439453125,12.029066640930175,22.5710439453125,10.965497640930176,21.5870439453125,10.189236640930176C21.5870439453125,10.189236640930176,21.5870439453125,10.189236640930176,21.5870439453125,10.189236640930176C21.5870439453125,10.189236640930176,21.5870439453125,10.189236640930176,21.5870439453125,10.189236640930176Z" fill="#E2E2E2" fill-opacity="1"/></g></g></g></svg>