<svg xmlns="http://www.w3.org/2000/svg" xmlns:xlink="http://www.w3.org/1999/xlink" fill="none" version="1.1" width="48.00001525878906" height="60" viewBox="0 0 48.00001525878906 60"><defs><linearGradient x1="0.5" y1="0" x2="1" y2="1.0641043186187744" id="master_svg0_5_50265"><stop offset="0%" stop-color="#FECD44" stop-opacity="1"/><stop offset="100%" stop-color="#FECD44" stop-opacity="0"/></linearGradient><linearGradient x1="0.6974878311157227" y1="0.8243963122367859" x2="-0.038072992116212845" y2="0.446259468793869" id="master_svg1_5_51427"><stop offset="0%" stop-color="#17FCFE" stop-opacity="1"/><stop offset="98.57142567634583%" stop-color="#1F53CC" stop-opacity="1"/></linearGradient><linearGradient x1="0.5" y1="-3.0616171314629196e-17" x2="0.5" y2="1" id="master_svg2_5_43455"><stop offset="0%" stop-color="#2083D3" stop-opacity="1"/><stop offset="100%" stop-color="#37C6EE" stop-opacity="1"/></linearGradient><linearGradient x1="0.5" y1="-3.0616171314629196e-17" x2="0.5" y2="1" id="master_svg3_5_43458"><stop offset="0%" stop-color="#2DA5C9" stop-opacity="1"/><stop offset="100%" stop-color="#2083D2" stop-opacity="1"/></linearGradient><linearGradient x1="0.5" y1="-3.0616171314629196e-17" x2="0.5" y2="1" id="master_svg4_5_51631"><stop offset="0%" stop-color="#144C69" stop-opacity="1"/><stop offset="100%" stop-color="#114464" stop-opacity="0.3700000047683716"/></linearGradient></defs><g><g><g><path d="" fill="#FFFFFF" fill-opacity="1"/></g><g><path d="M36.5,33C30.7,33,26,28.3,26,22.5C26,16.7,30.7,12,36.5,12C42.3,12,47,16.7,47,22.5C47,24.675,46.3375,26.6938,45.206199999999995,28.3688C44.990899999999996,28.6875,44.7585,28.9938,44.510400000000004,29.2864Q43.8037,32.0231,45.5,32.939Q42.838499999999996,33.2802,41.5412,31.7121C40.0451,32.533100000000005,38.3274,33,36.5,33Z" fill-rule="evenodd" fill="url(#master_svg0_5_50265)" fill-opacity="1"/></g><g><path d="M42.5,22.5Q42.5,22.57369,42.49278,22.64703Q42.48556,22.72036,42.47118,22.79264Q42.45681,22.864910000000002,42.43541,22.93543Q42.41402,23.00594,42.38582,23.07402Q42.35762,23.14211,42.32289,23.2071Q42.28815,23.27208,42.24721,23.33336Q42.20627,23.39463,42.15952,23.45159Q42.11277,23.50855,42.06066,23.56066Q42.00856,23.61277,41.95159,23.65952Q41.89463,23.70626,41.83336,23.7472Q41.77209,23.78814,41.7071,23.82288Q41.64211,23.85762,41.57403,23.88582Q41.50595,23.91402,41.43543,23.93541Q41.36491,23.9568,41.29264,23.97118Q41.22036,23.98555,41.14703,23.99278Q41.07369,24,41,24Q40.92631,24,40.85298,23.99278Q40.77964,23.98555,40.70737,23.97118Q40.63509,23.9568,40.56457,23.93541Q40.494057,23.91402,40.425976,23.88582Q40.357895,23.85762,40.292906,23.82288Q40.227917,23.78814,40.166645,23.7472Q40.105374,23.70626,40.048411,23.65952Q39.991447,23.61277,39.93934,23.56066Q39.887233,23.50855,39.840485,23.45159Q39.793736,23.39463,39.752796000000004,23.33335Q39.711856,23.27208,39.677118,23.2071Q39.642381,23.14211,39.614181,23.07402Q39.5859808,23.00594,39.5645896,22.93543Q39.5431984,22.864910000000002,39.5288221,22.79264Q39.5144458,22.72036,39.50722292,22.64703Q39.5,22.57369,39.5,22.5Q39.5,22.42631,39.50722292,22.35297Q39.5144458,22.27964,39.5288221,22.20736Q39.5431984,22.135089999999998,39.5645896,22.06457Q39.5859808,21.994056,39.614181,21.925975Q39.642381,21.857894,39.677118,21.792905Q39.711856,21.727916,39.752796000000004,21.666645Q39.793736,21.605373,39.840485,21.54841Q39.887233,21.491447,39.93934,21.43934Q39.991447,21.387233,40.048411,21.340484Q40.105374,21.293736,40.166645,21.252796Q40.227917,21.211855,40.292906,21.177118Q40.357895,21.142381,40.425976,21.114181Q40.494057,21.0859806,40.56457,21.0645895Q40.63509,21.0431983,40.70737,21.0288221Q40.77964,21.0144458,40.85298,21.00722291Q40.92631,21,41,21Q41.07369,21,41.14703,21.00722291Q41.22036,21.0144458,41.29264,21.0288221Q41.36491,21.0431983,41.43543,21.0645895Q41.50595,21.0859806,41.57403,21.114181Q41.64211,21.142381,41.7071,21.177118Q41.77209,21.211855,41.83336,21.252796Q41.89463,21.293736,41.95159,21.340484Q42.00856,21.387233,42.06066,21.43934Q42.11277,21.491447,42.15952,21.54841Q42.20627,21.605373,42.24721,21.666645Q42.28815,21.727916,42.32289,21.792905Q42.35762,21.857894,42.38582,21.925975Q42.41402,21.994056,42.43541,22.06457Q42.45681,22.135089999999998,42.47118,22.20736Q42.48556,22.27964,42.49278,22.35297Q42.5,22.42631,42.5,22.5Z" fill="#FFFFFF" fill-opacity="1"/></g><g><path d="M38,22.5Q38,22.57369,37.99278,22.64703Q37.98555,22.72036,37.97118,22.79264Q37.9568,22.864910000000002,37.93541,22.93543Q37.91402,23.00594,37.88582,23.07402Q37.85762,23.14211,37.82288,23.2071Q37.78814,23.27208,37.7472,23.33336Q37.70626,23.39463,37.65952,23.45159Q37.61277,23.50855,37.56066,23.56066Q37.50855,23.61277,37.45159,23.65952Q37.39463,23.70626,37.33335,23.7472Q37.27208,23.78814,37.2071,23.82288Q37.14211,23.85762,37.07402,23.88582Q37.00594,23.91402,36.93543,23.93541Q36.86491,23.9568,36.79264,23.97118Q36.72036,23.98555,36.64703,23.99278Q36.57369,24,36.5,24Q36.42631,24,36.35297,23.99278Q36.27964,23.98555,36.20736,23.97118Q36.13509,23.9568,36.06457,23.93541Q35.994056,23.91402,35.925975,23.88582Q35.857894,23.85762,35.792905,23.82288Q35.727916,23.78814,35.666645,23.7472Q35.605373,23.70626,35.54841,23.65952Q35.491447,23.61277,35.43934,23.56066Q35.387233,23.50855,35.340484000000004,23.45159Q35.293736,23.39463,35.252796000000004,23.33335Q35.211855,23.27208,35.177118,23.2071Q35.142381,23.14211,35.114181,23.07402Q35.0859806,23.00594,35.0645895,22.93543Q35.0431983,22.864910000000002,35.0288221,22.79264Q35.0144458,22.72036,35.00722291,22.64703Q35,22.57369,35,22.5Q35,22.42631,35.00722291,22.35297Q35.0144458,22.27964,35.0288221,22.20736Q35.0431983,22.135089999999998,35.0645895,22.06457Q35.0859806,21.994056,35.114181,21.925975Q35.142381,21.857894,35.177118,21.792905Q35.211855,21.727916,35.252796000000004,21.666645Q35.293736,21.605373,35.340484000000004,21.54841Q35.387233,21.491447,35.43934,21.43934Q35.491447,21.387233,35.54841,21.340484Q35.605373,21.293736,35.666645,21.252796Q35.727916,21.211855,35.792905,21.177118Q35.857894,21.142381,35.925975,21.114181Q35.994056,21.0859806,36.06457,21.0645895Q36.13509,21.0431983,36.20736,21.0288221Q36.27964,21.0144458,36.35297,21.00722291Q36.42631,21,36.5,21Q36.57369,21,36.64703,21.00722291Q36.72036,21.0144458,36.79264,21.0288221Q36.86491,21.0431983,36.93543,21.0645895Q37.00594,21.0859806,37.07402,21.114181Q37.14211,21.142381,37.2071,21.177118Q37.27208,21.211855,37.33336,21.252796Q37.39463,21.293736,37.45159,21.340484Q37.50855,21.387233,37.56066,21.43934Q37.61277,21.491447,37.65952,21.54841Q37.70626,21.605373,37.7472,21.666645Q37.78814,21.727916,37.82288,21.792905Q37.85762,21.857894,37.88582,21.925975Q37.91402,21.994056,37.93541,22.06457Q37.9568,22.135089999999998,37.97118,22.20736Q37.98555,22.27964,37.99278,22.35297Q38,22.42631,38,22.5Z" fill="#FFFFFF" fill-opacity="1"/></g><g><path d="M33.5,22.5Q33.5,22.57369,33.49278,22.64703Q33.48555,22.72036,33.47118,22.79264Q33.4568,22.864910000000002,33.43541,22.93543Q33.41402,23.00594,33.38582,23.07402Q33.35762,23.14211,33.32288,23.2071Q33.28814,23.27208,33.2472,23.33336Q33.20626,23.39463,33.15952,23.45159Q33.11277,23.50855,33.06066,23.56066Q33.00855,23.61277,32.95159,23.65952Q32.89463,23.70626,32.83335,23.7472Q32.77208,23.78814,32.7071,23.82288Q32.64211,23.85762,32.57402,23.88582Q32.50594,23.91402,32.43543,23.93541Q32.36491,23.9568,32.29264,23.97118Q32.22036,23.98555,32.14703,23.99278Q32.07369,24,32,24Q31.92631,24,31.85297,23.99278Q31.77964,23.98555,31.70736,23.97118Q31.635089999999998,23.9568,31.56457,23.93541Q31.494056,23.91402,31.425975,23.88582Q31.357894,23.85762,31.292905,23.82288Q31.227916,23.78814,31.166645,23.7472Q31.105373,23.70626,31.04841,23.65952Q30.991447,23.61277,30.93934,23.56066Q30.887233,23.50855,30.840484,23.45159Q30.793736,23.39463,30.752796,23.33335Q30.711855,23.27208,30.677118,23.2071Q30.642381,23.14211,30.614181,23.07402Q30.5859806,23.00594,30.5645895,22.93543Q30.5431983,22.864910000000002,30.5288221,22.79264Q30.5144458,22.72036,30.50722291,22.64703Q30.5,22.57369,30.5,22.5Q30.5,22.42631,30.50722291,22.35297Q30.5144458,22.27964,30.5288221,22.20736Q30.5431983,22.135089999999998,30.5645895,22.06457Q30.5859806,21.994056,30.614181,21.925975Q30.642381,21.857894,30.677118,21.792905Q30.711855,21.727916,30.752796,21.666645Q30.793736,21.605373,30.840484,21.54841Q30.887233,21.491447,30.93934,21.43934Q30.991447,21.387233,31.04841,21.340484Q31.105373,21.293736,31.166645,21.252796Q31.227916,21.211855,31.292905,21.177118Q31.357894,21.142381,31.425975,21.114181Q31.494056,21.0859806,31.56457,21.0645895Q31.635089999999998,21.0431983,31.70736,21.0288221Q31.77964,21.0144458,31.85297,21.00722291Q31.92631,21,32,21Q32.07369,21,32.14703,21.00722291Q32.22036,21.0144458,32.29264,21.0288221Q32.36491,21.0431983,32.43543,21.0645895Q32.50594,21.0859806,32.57402,21.114181Q32.64211,21.142381,32.7071,21.177118Q32.77208,21.211855,32.83336,21.252796Q32.89463,21.293736,32.95159,21.340484Q33.00855,21.387233,33.06066,21.43934Q33.11277,21.491447,33.15952,21.54841Q33.20626,21.605373,33.2472,21.666645Q33.28814,21.727916,33.32288,21.792905Q33.35762,21.857894,33.38582,21.925975Q33.41402,21.994056,33.43541,22.06457Q33.4568,22.135089999999998,33.47118,22.20736Q33.48555,22.27964,33.49278,22.35297Q33.5,22.42631,33.5,22.5Z" fill="#FFFFFF" fill-opacity="1"/></g><g><path d="" fill="#FFFFFF" fill-opacity="1"/></g><g><path d="M18.4969,33C27.6093,33,35,25.6107,35,16.5C35,7.38927,27.6156,0,18.5031,0C9.39066,0,2,7.38927,2,16.5C2,19.9119,3.03805,23.0876,4.81578,25.7226C5.32911,26.4833,5.90411,27.1987,6.53359,27.8618Q7.86716,31.3506,5,32.8987Q9.035,33.4151,11.19011,31.298C13.3928,32.3879,15.8736,33,18.4969,33Z" fill-rule="evenodd" fill="url(#master_svg1_5_51427)" fill-opacity="1"/></g><g><path d="M14.00086,17.25Q14.00086,17.36054,13.990020000000001,17.47054Q13.97918,17.58054,13.957609999999999,17.68895Q13.93604,17.79736,13.90394,17.90314Q13.871839999999999,18.00892,13.829519999999999,18.11104Q13.78721,18.21316,13.73508,18.31064Q13.68295,18.40813,13.62152,18.50003Q13.560089999999999,18.59194,13.48994,18.67738Q13.419789999999999,18.76283,13.3416,18.84099Q13.26341,18.919150000000002,13.17793,18.98927Q13.09245,19.0594,13.00051,19.12081Q12.908570000000001,19.18222,12.81105,19.23432Q12.71353,19.28643,12.61137,19.32873Q12.50921,19.37103,12.40339,19.40312Q12.29757,19.435200000000002,12.189119999999999,19.45677Q12.08067,19.47833,11.97062,19.48917Q11.86058,19.5,11.75,19.5Q11.63942,19.5,11.52938,19.48917Q11.41933,19.47833,11.310880000000001,19.45677Q11.20243,19.435200000000002,11.09661,19.40312Q10.99079,19.37103,10.88863,19.32873Q10.78647,19.28643,10.68895,19.23432Q10.591429999999999,19.18222,10.499489,19.12081Q10.407548,19.0594,10.32207,18.98927Q10.236592,18.919150000000002,10.158402,18.84099Q10.080212,18.76283,10.010062,18.67738Q9.939913,18.59194,9.878479,18.50003Q9.817045,18.40813,9.764919,18.31064Q9.712793,18.21316,9.670477,18.11104Q9.628161,18.00892,9.596062,17.90314Q9.5639631,17.79736,9.5423904,17.68895Q9.5208178,17.58054,9.50997931,17.47054Q9.499140813,17.36054,9.499140813,17.25Q9.499140813,17.13946,9.50997931,17.02946Q9.5208178,16.91946,9.5423904,16.81105Q9.5639631,16.70264,9.596062,16.59686Q9.628161,16.49108,9.670477,16.38896Q9.712793,16.28684,9.764919,16.18936Q9.817045,16.09187,9.878479,15.999967Q9.939913,15.90806,10.010062,15.822615Q10.080212,15.73717,10.158402,15.65901Q10.236592,15.580849,10.32207,15.510727Q10.407548,15.440604,10.49949,15.379193Q10.591429999999999,15.317783,10.68895,15.265677Q10.78647,15.213571,10.88863,15.171271Q10.99079,15.128971,11.09661,15.0968842Q11.20243,15.0647975,11.310880000000001,15.0432331Q11.41933,15.0216687,11.52938,15.0108344Q11.63942,15,11.75,15Q11.86058,15,11.97062,15.0108344Q12.08067,15.0216687,12.189119999999999,15.0432331Q12.29757,15.0647975,12.40339,15.0968842Q12.50921,15.128971,12.61137,15.171271Q12.71353,15.213571,12.81105,15.265677Q12.908570000000001,15.317783,13.00051,15.379193Q13.09245,15.440604,13.17793,15.510727Q13.26341,15.580849,13.3416,15.65901Q13.419789999999999,15.73717,13.48994,15.822615Q13.560089999999999,15.90806,13.62152,15.999967Q13.68295,16.09187,13.73508,16.18936Q13.78721,16.28684,13.829519999999999,16.38896Q13.871839999999999,16.49108,13.90394,16.59686Q13.93604,16.70264,13.957609999999999,16.81105Q13.97918,16.91946,13.990020000000001,17.02946Q14.00086,17.13946,14.00086,17.25Z" fill="#FFFFFF" fill-opacity="1"/></g><g><path d="M21.5,17.25Q21.5,17.36054,21.48917,17.47054Q21.47833,17.58054,21.45677,17.68895Q21.435200000000002,17.79736,21.40312,17.90314Q21.37103,18.00892,21.32873,18.11104Q21.28643,18.21316,21.23432,18.31064Q21.18222,18.40813,21.12081,18.50003Q21.0594,18.59194,20.98928,18.67738Q20.919150000000002,18.76283,20.84099,18.84099Q20.76283,18.919150000000002,20.67739,18.98927Q20.59194,19.0594,20.50003,19.12081Q20.40813,19.18222,20.31064,19.23432Q20.21316,19.28643,20.11104,19.32873Q20.00892,19.37103,19.90314,19.40312Q19.79737,19.435200000000002,19.68895,19.45677Q19.58054,19.47833,19.47054,19.48917Q19.36054,19.5,19.25,19.5Q19.13947,19.5,19.02946,19.48917Q18.91946,19.47833,18.81105,19.45677Q18.70264,19.435200000000002,18.59686,19.40312Q18.49108,19.37103,18.38896,19.32873Q18.28684,19.28643,18.18936,19.23432Q18.09187,19.18222,17.999967,19.12081Q17.90806,19.0594,17.822615,18.98927Q17.73717,18.919150000000002,17.65901,18.84099Q17.58085,18.76283,17.510727,18.67738Q17.440604,18.59194,17.379193,18.50003Q17.317783,18.40813,17.265677,18.31064Q17.213571,18.21316,17.171271,18.11104Q17.128971,18.00892,17.0968843,17.90314Q17.0647975,17.79736,17.0432331,17.68895Q17.0216687,17.58054,17.0108344,17.47054Q17,17.36054,17,17.25Q17,17.13946,17.0108344,17.02946Q17.0216687,16.91946,17.0432331,16.81105Q17.0647975,16.70264,17.0968843,16.59686Q17.128971,16.49108,17.171271,16.38896Q17.213571,16.28684,17.265677,16.18936Q17.317783,16.09187,17.379193,15.999967Q17.440604,15.90806,17.510727,15.822615Q17.58085,15.73717,17.65901,15.65901Q17.73717,15.580849,17.822615,15.510727Q17.908061,15.440604,17.999967,15.379193Q18.09187,15.317783,18.18936,15.265677Q18.28684,15.213571,18.38896,15.171271Q18.49108,15.128971,18.59686,15.0968842Q18.70264,15.0647975,18.81105,15.0432331Q18.91946,15.0216687,19.02946,15.0108344Q19.13947,15,19.25,15Q19.36054,15,19.47054,15.0108344Q19.58054,15.0216687,19.68895,15.0432331Q19.79737,15.0647975,19.90314,15.0968842Q20.00892,15.128971,20.11104,15.171271Q20.21316,15.213571,20.31064,15.265677Q20.40813,15.317783,20.50003,15.379193Q20.59194,15.440604,20.67739,15.510727Q20.76283,15.580849,20.84099,15.65901Q20.919150000000002,15.73717,20.98927,15.822615Q21.0594,15.90806,21.12081,15.999967Q21.18222,16.09187,21.23432,16.18936Q21.28643,16.28684,21.32873,16.38896Q21.37103,16.49108,21.40312,16.59686Q21.435200000000002,16.70264,21.45677,16.81105Q21.47833,16.91946,21.48917,17.02946Q21.5,17.13946,21.5,17.25Z" fill="#FFFFFF" fill-opacity="1"/></g><g><path d="M29,17.25Q29,17.36054,28.98917,17.47054Q28.97833,17.58054,28.95677,17.68895Q28.935200000000002,17.79736,28.90312,17.90314Q28.87103,18.00892,28.82873,18.11104Q28.78643,18.21316,28.73432,18.31064Q28.68222,18.40813,28.62081,18.50003Q28.5594,18.59194,28.48928,18.67738Q28.419150000000002,18.76283,28.34099,18.84099Q28.26283,18.919150000000002,28.17739,18.98927Q28.09194,19.0594,28.00003,19.12081Q27.90813,19.18222,27.81064,19.23432Q27.71316,19.28643,27.61104,19.32873Q27.50892,19.37103,27.40314,19.40312Q27.29737,19.435200000000002,27.18895,19.45677Q27.08054,19.47833,26.97054,19.48917Q26.86054,19.5,26.75,19.5Q26.63947,19.5,26.52946,19.48917Q26.41946,19.47833,26.31105,19.45677Q26.20264,19.435200000000002,26.09686,19.40312Q25.99108,19.37103,25.88896,19.32873Q25.78684,19.28643,25.68936,19.23432Q25.59187,19.18222,25.499967,19.12081Q25.40806,19.0594,25.322615,18.98927Q25.23717,18.919150000000002,25.15901,18.84099Q25.08085,18.76283,25.010727,18.67738Q24.940604,18.59194,24.879193,18.50003Q24.817783,18.40813,24.765677,18.31064Q24.713571,18.21316,24.671271,18.11104Q24.628971,18.00892,24.5968843,17.90314Q24.5647975,17.79736,24.5432331,17.68895Q24.5216687,17.58054,24.5108344,17.47054Q24.5,17.36054,24.5,17.25Q24.5,17.13946,24.5108344,17.02946Q24.5216687,16.91946,24.5432331,16.81105Q24.5647975,16.70264,24.5968843,16.59686Q24.628971,16.49108,24.671271,16.38896Q24.713571,16.28684,24.765677,16.18936Q24.817783,16.09187,24.879193,15.999967Q24.940604,15.90806,25.010727,15.822615Q25.08085,15.73717,25.15901,15.65901Q25.23717,15.580849,25.322615,15.510727Q25.408061,15.440604,25.499967,15.379193Q25.59187,15.317783,25.68936,15.265677Q25.78684,15.213571,25.88896,15.171271Q25.99108,15.128971,26.09686,15.0968842Q26.20264,15.0647975,26.31105,15.0432331Q26.41946,15.0216687,26.52946,15.0108344Q26.63947,15,26.75,15Q26.86054,15,26.97054,15.0108344Q27.08054,15.0216687,27.18895,15.0432331Q27.29737,15.0647975,27.40314,15.0968842Q27.50892,15.128971,27.61104,15.171271Q27.71316,15.213571,27.81064,15.265677Q27.90813,15.317783,28.00003,15.379193Q28.09194,15.440604,28.17739,15.510727Q28.26283,15.580849,28.34099,15.65901Q28.419150000000002,15.73717,28.48927,15.822615Q28.5594,15.90806,28.62081,15.999967Q28.68222,16.09187,28.73432,16.18936Q28.78643,16.28684,28.82873,16.38896Q28.87103,16.49108,28.90312,16.59686Q28.935200000000002,16.70264,28.95677,16.81105Q28.97833,16.91946,28.98917,17.02946Q29,17.13946,29,17.25Z" fill="#FFFFFF" fill-opacity="1"/></g></g><g><g><path d="M0.00008392333984375,48.960330963134766C0.00008392333984375,48.960330963134766,24.000083923339844,57.92067096313477,24.000083923339844,57.92067096313477C24.000083923339844,57.92067096313477,24.000083923339844,60.00003096313476,24.000083923339844,60.00003096313476C24.000083923339844,60.00003096313476,0.00008392333984375,51.03967096313477,0.00008392333984375,51.03967096313477C0.00008392333984375,51.03967096313477,0.00008392333984375,48.960330963134766,0.00008392333984375,48.960330963134766C0.00008392333984375,48.960330963134766,0.00008392333984375,48.960330963134766,0.00008392333984375,48.960330963134766Z" fill="url(#master_svg2_5_43455)" fill-opacity="1"/></g><g><path d="M24,57.92067096313477C24,57.92067096313477,48,48.960330963134766,48,48.960330963134766C48,48.960330963134766,48,51.03967096313477,48,51.03967096313477C48,51.03967096313477,24,60.00003096313476,24,60.00003096313476C24,60.00003096313476,24,57.92067096313477,24,57.92067096313477C24,57.92067096313477,24,57.92067096313477,24,57.92067096313477Z" fill="url(#master_svg3_5_43458)" fill-opacity="1"/></g><g transform="matrix(0.9368373155593872,0.34976550936698914,-0.9368373155593872,0.3497653603553772,38.989397048950195,17.615013360977173)"><rect x="24" y="40" width="25.61810874938965" height="25.61810874938965" rx="0" fill="url(#master_svg4_5_51631)" fill-opacity="1"/></g><g><path d="M23.928557780456543,41.386224031448364C23.928557780456543,41.386224031448364,23.984857780456544,41.222099031448366,23.984857780456544,41.222099031448366C23.984857780456544,41.222099031448366,23.928557780456543,41.201867031448366,23.928557780456543,41.201867031448366C23.928557780456543,41.201867031448366,23.872257780456543,41.222099031448366,23.872257780456543,41.222099031448366C23.872257780456543,41.222099031448366,23.928557780456543,41.386224031448364,23.928557780456543,41.386224031448364C23.928557780456543,41.386224031448364,23.928557780456543,41.386224031448364,23.928557780456543,41.386224031448364ZM45.141757780456544,49.01045403144836C45.141757780456544,49.01045403144836,45.198057780456544,49.17458403144836,45.198057780456544,49.17458403144836C45.198057780456544,49.17458403144836,45.65475778045654,49.01045403144836,45.65475778045654,49.01045403144836C45.65475778045654,49.01045403144836,45.198057780456544,48.84632403144836,45.198057780456544,48.84632403144836C45.198057780456544,48.84632403144836,45.141757780456544,49.01045403144836,45.141757780456544,49.01045403144836C45.141757780456544,49.01045403144836,45.141757780456544,49.01045403144836,45.141757780456544,49.01045403144836ZM23.928557780456543,56.634724031448364C23.928557780456543,56.634724031448364,23.872257780456543,56.79882403144836,23.872257780456543,56.79882403144836C23.872257780456543,56.79882403144836,23.928557780456543,56.81912403144837,23.928557780456543,56.81912403144837C23.928557780456543,56.81912403144837,23.984857780456544,56.79882403144836,23.984857780456544,56.79882403144836C23.984857780456544,56.79882403144836,23.928557780456543,56.634724031448364,23.928557780456543,56.634724031448364C23.928557780456543,56.634724031448364,23.928557780456543,56.634724031448364,23.928557780456543,56.634724031448364ZM2.715357780456543,49.01045403144836C2.715357780456543,49.01045403144836,2.659064980456543,48.84632403144836,2.659064980456543,48.84632403144836C2.659064980456543,48.84632403144836,2.202414780456543,49.01045403144836,2.202414780456543,49.01045403144836C2.202414780456543,49.01045403144836,2.659064980456543,49.17458403144836,2.659064980456543,49.17458403144836C2.659064980456543,49.17458403144836,2.715357780456543,49.01045403144836,2.715357780456543,49.01045403144836C2.715357780456543,49.01045403144836,2.715357780456543,49.01045403144836,2.715357780456543,49.01045403144836ZM43.38845778045654,48.56465403144836C43.38845778045654,48.56465403144836,45.085457780456544,49.17458403144836,45.085457780456544,49.17458403144836C45.085457780456544,49.17458403144836,45.198057780456544,48.84632403144836,45.198057780456544,48.84632403144836C45.198057780456544,48.84632403144836,43.50105778045654,48.23639403144836,43.50105778045654,48.23639403144836C43.50105778045654,48.23639403144836,43.38845778045654,48.56465403144836,43.38845778045654,48.56465403144836C43.38845778045654,48.56465403144836,43.38845778045654,48.56465403144836,43.38845778045654,48.56465403144836ZM45.085457780456544,48.84632403144836C45.085457780456544,48.84632403144836,43.38845778045654,49.45630403144837,43.38845778045654,49.45630403144837C43.38845778045654,49.45630403144837,43.50105778045654,49.78451403144837,43.50105778045654,49.78451403144837C43.50105778045654,49.78451403144837,45.198057780456544,49.17458403144836,45.198057780456544,49.17458403144836C45.198057780456544,49.17458403144836,45.085457780456544,48.84632403144836,45.085457780456544,48.84632403144836C45.085457780456544,48.84632403144836,45.085457780456544,48.84632403144836,45.085457780456544,48.84632403144836ZM2.771650580456543,49.17458403144836C2.771650580456543,49.17458403144836,4.468707780456543,48.56465403144836,4.468707780456543,48.56465403144836C4.468707780456543,48.56465403144836,4.356127780456543,48.23639403144836,4.356127780456543,48.23639403144836C4.356127780456543,48.23639403144836,2.659064980456543,48.84632403144836,2.659064980456543,48.84632403144836C2.659064980456543,48.84632403144836,2.771650580456543,49.17458403144836,2.771650580456543,49.17458403144836C2.771650580456543,49.17458403144836,2.771650580456543,49.17458403144836,2.771650580456543,49.17458403144836ZM4.468707780456543,49.45630403144837C4.468707780456543,49.45630403144837,2.771650580456543,48.84632403144836,2.771650580456543,48.84632403144836C2.771650580456543,48.84632403144836,2.659064980456543,49.17458403144836,2.659064980456543,49.17458403144836C2.659064980456543,49.17458403144836,4.356127780456543,49.78451403144837,4.356127780456543,49.78451403144837C4.356127780456543,49.78451403144837,4.468707780456543,49.45630403144837,4.468707780456543,49.45630403144837C4.468707780456543,49.45630403144837,4.468707780456543,49.45630403144837,4.468707780456543,49.45630403144837ZM22.457457780456544,42.099295031448364C22.457457780456544,42.099295031448364,23.984857780456544,41.55034903144836,23.984857780456544,41.55034903144836C23.984857780456544,41.55034903144836,23.872257780456543,41.222099031448366,23.872257780456543,41.222099031448366C23.872257780456543,41.222099031448366,22.344957780456543,41.77104403144836,22.344957780456543,41.77104403144836C22.344957780456543,41.77104403144836,22.457457780456544,42.099295031448364,22.457457780456544,42.099295031448364C22.457457780456544,42.099295031448364,22.457457780456544,42.099295031448364,22.457457780456544,42.099295031448364ZM23.872257780456543,41.55034903144836C23.872257780456543,41.55034903144836,25.739057780456545,42.221280031448366,25.739057780456545,42.221280031448366C25.739057780456545,42.221280031448366,25.85165778045654,41.89303003144836,25.85165778045654,41.89303003144836C25.85165778045654,41.89303003144836,23.984857780456544,41.222099031448366,23.984857780456544,41.222099031448366C23.984857780456544,41.222099031448366,23.872257780456543,41.55034903144836,23.872257780456543,41.55034903144836C23.872257780456543,41.55034903144836,23.872257780456543,41.55034903144836,23.872257780456543,41.55034903144836ZM25.739057780456545,55.79962403144836C25.739057780456545,55.79962403144836,23.872257780456543,56.47052403144836,23.872257780456543,56.47052403144836C23.872257780456543,56.47052403144836,23.984857780456544,56.79882403144836,23.984857780456544,56.79882403144836C23.984857780456544,56.79882403144836,25.85165778045654,56.127924031448366,25.85165778045654,56.127924031448366C25.85165778045654,56.127924031448366,25.739057780456545,55.79962403144836,25.739057780456545,55.79962403144836C25.739057780456545,55.79962403144836,25.739057780456545,55.79962403144836,25.739057780456545,55.79962403144836ZM23.984857780456544,56.47052403144836C23.984857780456544,56.47052403144836,22.457457780456544,55.92162403144836,22.457457780456544,55.92162403144836C22.457457780456544,55.92162403144836,22.344957780456543,56.249924031448366,22.344957780456543,56.249924031448366C22.344957780456543,56.249924031448366,23.872257780456543,56.79882403144836,23.872257780456543,56.79882403144836C23.872257780456543,56.79882403144836,23.984857780456544,56.47052403144836,23.984857780456544,56.47052403144836C23.984857780456544,56.47052403144836,23.984857780456544,56.47052403144836,23.984857780456544,56.47052403144836Z" fill="#DEF0FF" fill-opacity="1"/></g></g></g></svg>