<svg xmlns="http://www.w3.org/2000/svg" xmlns:xlink="http://www.w3.org/1999/xlink" fill="none" version="1.1" width="48.00001525878906" height="60" viewBox="0 0 48.00001525878906 60"><defs><linearGradient x1="0.5" y1="0" x2="1" y2="1.0641043186187744" id="master_svg0_5_50265"><stop offset="0%" stop-color="#FECD44" stop-opacity="1"/><stop offset="100%" stop-color="#FECD44" stop-opacity="0"/></linearGradient><linearGradient x1="0.6974878311157227" y1="0.8243963122367859" x2="-0.038072992116212845" y2="0.446259468793869" id="master_svg1_5_51427"><stop offset="0%" stop-color="#17FCFE" stop-opacity="1"/><stop offset="98.57142567634583%" stop-color="#1F53CC" stop-opacity="1"/></linearGradient><linearGradient x1="0.5" y1="-3.0616171314629196e-17" x2="0.5" y2="1" id="master_svg2_5_43455"><stop offset="0%" stop-color="#2083D3" stop-opacity="1"/><stop offset="100%" stop-color="#37C6EE" stop-opacity="1"/></linearGradient><linearGradient x1="0.5" y1="-3.0616171314629196e-17" x2="0.5" y2="1" id="master_svg3_5_43458"><stop offset="0%" stop-color="#2DA5C9" stop-opacity="1"/><stop offset="100%" stop-color="#2083D2" stop-opacity="1"/></linearGradient><linearGradient x1="0.5" y1="-3.0616171314629196e-17" x2="0.5" y2="1" id="master_svg4_5_51631"><stop offset="0%" stop-color="#144C69" stop-opacity="1"/><stop offset="100%" stop-color="#114464" stop-opacity="0.3700000047683716"/></linearGradient></defs><g><g><g><path d="" fill="#FFFFFF" fill-opacity="1"/></g><g><path d="M36.5,33C30.7,33,26,28.3,26,22.5C26,16.7,30.7,12,36.5,12C42.3,12,47,16.7,47,22.5C47,24.675,46.3375,26.6938,45.206199999999995,28.3688C44.990899999999996,28.6875,44.7585,28.9938,44.510400000000004,29.2864Q43.8037,32.0231,45.5,32.939Q42.838499999999996,33.2802,41.5412,31.7121C40.0451,32.533100000000005,38.3274,33,36.5,33Z" fill-rule="evenodd" fill="url(#master_svg0_5_50265)" fill-opacity="1"/></g><g><path d="M42.5,22.5Q42.5,22.57369,42.49278,22.64703Q42.48556,22.72036,42.47118,22.79264Q42.45681,22.864910000000002,42.43541,22.93543Q42.41402,23.00594,42.38582,23.07402Q42.35762,23.14211,42.32289,23.2071Q42.28815,23.27208,42.24721,23.33336Q42.20627,23.39463,42.15952,23.45159Q42.11277,23.50855,42.06066,23.56066Q42.00856,23.61277,41.95159,23.65952Q41.89463,23.70626,41.83336,23.7472Q41.77209,23.78814,41.7071,23.82288Q41.64211,23.85762,41.57403,23.88582Q41.50595,23.91402,41.43543,23.93541Q41.36491,23.9568,41.29264,23.97118Q41.22036,23.98555,41.14703,23.99278Q41.07369,24,41,24Q40.92631,24,40.85298,23.99278Q40.77964,23.98555,40.70737,23.97118Q40.63509,23.9568,40.56457,23.93541Q40.494057,23.91402,40.425976,23.88582Q40.357895,23.85762,40.292906,23.82288Q40.227917,23.78814,40.166645,23.7472Q40.105374,23.70626,40.048411,23.65952Q39.991447,23.61277,39.93934,23.56066Q39.887233,23.50855,39.840485,23.45159Q39.793736,23.39463,39.752796000000004,23.33335Q39.711856,23.27208,39.677118,23.2071Q39.642381,23.14211,39.614181,23.07402Q39.5859808,23.00594,39.5645896,22.93543Q39.5431984,22.864910000000002,39.5288221,22.79264Q39.5144458,22.72036,39.50722292,22.64703Q39.5,22.57369,39.5,22.5Q39.5,22.42631,39.50722292,22.35297Q39.5144458,22.27964,39.5288221,22.20736Q39.5431984,22.135089999999998,39.5645896,22.06457Q39.5859808,21.994056,39.614181,21.925975Q39.642381,21.857894,39.677118,21.792905Q39.711856,21.727916,39.752796000000004,21.666645Q39.793736,21.605373,39.840485,21.54841Q39.887233,21.491447,39.93934,21.43934Q39.991447,21.387233,40.048411,21.340484Q40.105374,21.293736,40.166645,21.252796Q40.227917,21.211855,40.292906,21.177118Q40.357895,21.142381,40.425976,21.114181Q40.494057,21.0859806,40.56457,21.0645895Q40.63509,21.0431983,40.70737,21.0288221Q40.77964,21.0144458,40.85298,21.00722291Q40.92631,21,41,21Q41.07369,21,41.14703,21.00722291Q41.22036,21.0144458,41.29264,21.0288221Q41.36491,21.0431983,41.43543,21.0645895Q41.50595,21.0859806,41.57403,21.114181Q41.64211,21.142381,41.7071,21.177118Q41.77209,21.211855,41.83336,21.252796Q41.89463,21.293736,41.95159,21.340484Q42.00856,21.387233,42.06066,21.43934Q42.11277,21.491447,42.15952,21.54841Q42.20627,21.605373,42.24721,21.666645Q42.28815,21.727916,42.32289,21.792905Q42.35762,21.857894,42.38582,21.925975Q42.41402,21.994056,42.43541,22.06457Q42.45681,22.135089999999998,42.47118,22.20736Q42.48556,22.27964,42.49278,22.35297Q42.5,22.42631,42.5,22.5Z" fill="#FFFFFF" fill-opacity="1"/></g><g><path d="M38,22.5Q38,22.57369,37.99278,22.64703Q37.98555,22.72036,37.97118,22.79264Q37.9568,22.864910000000002,37.93541,22.93543Q37.91402,23.00594,37.88582,23.07402Q37.85762,23.14211,37.82288,23.2071Q37.78814,23.27208,37.7472,23.33336Q37.70626,23.39463,37.65952,23.45159Q37.61277,23.50855,37.56066,23.56066Q37.50855,23.61277,37.45159,23.65952Q37.39463,23.70626,37.33335,23.7472Q37.27208,23.78814,37.2071,23.82288Q37.14211,23.85762,37.07402,23.88582Q37.00594,23.91402,36.93543,23.93541Q36.86491,23.9568,36.79264,23.97118Q36.72036,23.98555,36.64703,23.99278Q36.57369,24,36.5,24Q36.42631,24,36.35297,23.99278Q36.27964,23.98555,36.20736,23.97118Q36.13509,23.9568,36.06457,23.93541Q35.994056,23.91402,35.925975,23.88582Q35.857894,23.85762,35.792905,23.82288Q35.727916,23.78814,35.666645,23.7472Q35.605373,23.70626,35.54841,23.65952Q35.491447,23.61277,35.43934,23.56066Q35.387233,23.50855,35.340484000000004,23.45159Q35.293736,23.39463,35.252796000000004,23.33335Q35.211855,23.27208,35.177118,23.2071Q35.142381,23.14211,35.114181,23.07402Q35.0859806,23.00594,35.0645895,22.93543Q35.0431983,22.864910000000002,35.0288221,22.79264Q35.0144458,22.72036,35.00722291,22.64703Q35,22.57369,35,22.5Q35,22.42631,35.00722291,22.35297Q35.0144458,22.27964,35.0288221,22.20736Q35.0431983,22.135089999999998,35.0645895,22.06457Q35.0859806,21.994056,35.114181,21.925975Q35.142381,21.857894,35.177118,21.792905Q35.211855,21.727916,35.252796000000004,21.666645Q35.293736,21.605373,35.340484000000004,21.54841Q35.387233,21.491447,35.43934,21.43934Q35.491447,21.387233,35.54841,21.340484Q35.605373,21.293736,35.666645,21.252796Q35.727916,21.211855,35.792905,21.177118Q35.857894,21.142381,35.925975,21.114181Q35.994056,21.0859806,36.06457,21.0645895Q36.13509,21.0431983,36.20736,21.0288221Q36.27964,21.0144458,36.35297,21.00722291Q36.42631,21,36.5,21Q36.57369,21,36.64703,21.00722291Q36.72036,21.0144458,36.79264,21.0288221Q36.86491,21.0431983,36.93543,21.0645895Q37.00594,21.0859806,37.07402,21.114181Q37.14211,21.142381,37.2071,21.177118Q37.27208,21.211855,37.33336,21.252796Q37.39463,21.293736,37.45159,21.340484Q37.50855,21.387233,37.56066,21.43934Q37.61277,21.491447,37.65952,21.54841Q37.70626,21.605373,37.7472,21.666645Q37.78814,21.727916,37.82288,21.792905Q37.85762,21.857894,37.88582,21.925975Q37.91402,21.994056,37.93541,22.06457Q37.9568,22.135089999999998,37.97118,22.20736Q37.98555,22.27964,37.99278,22.35297Q38,22.42631,38,22.5Z" fill="#FFFFFF" fill-opacity="1"/></g><g><path d="M33.5,22.5Q33.5,22.57369,33.49278,22.64703Q33.48555,22.72036,33.47118,22.79264Q33.4568,22.864910000000002,33.43541,22.93543Q33.41402,23.00594,33.38582,23.07402Q33.35762,23.14211,33.32288,23.2071Q33.28814,23.27208,33.2472,23.33336Q33.20626,23.39463,33.15952,23.45159Q33.11277,23.50855,33.06066,23.56066Q33.00855,23.61277,32.95159,23.65952Q32.89463,23.70626,32.83335,23.7472Q32.77208,23.78814,32.7071,23.82288Q32.64211,23.85762,32.57402,23.88582Q32.50594,23.91402,32.43543,23.93541Q32.36491,23.9568,32.29264,23.97118Q32.22036,23.98555,32.14703,23.99278Q32.07369,24,32,24Q31.92631,24,31.85297,23.99278Q31.77964,23.98555,31.70736,23.97118Q31.635089999999998,23.9568,31.56457,23.93541Q31.494056,23.91402,31.425975,23.88582Q31.357894,23.85762,31.292905,23.82288Q31.227916,23.78814,31.166645,23.7472Q31.105373,23.70626,31.04841,23.65952Q30.991447,23.61277,30.93934,23.56066Q30.887233,23.50855,30.840484,23.45159Q30.793736,23.39463,30.752796,23.33335Q30.711855,23.27208,30.677118,23.2071Q30.642381,23.14211,30.614181,23.07402Q30.5859806,23.00594,30.5645895,22.93543Q30.5431983,22.864910000000002,30.5288221,22.79264Q30.5144458,22.72036,30.50722291,22.64703Q30.5,22.57369,30.5,22.5Q30.5,22.42631,30.50722291,22.35297Q30.5144458,22.27964,30.5288221,22.20736Q30.5431983,22.135089999999998,30.5645895,22.06457Q30.5859806,21.994056,30.614181,21.925975Q30.642381,21.857894,30.677118,21.792905Q30.711855,21.727916,30.752796,21.666645Q30.793736,21.605373,30.840484,21.54841Q30.887233,21.491447,30.93934,21.43934Q30.991447,21.387233,31.04841,21.340484Q31.105373,21.293736,31.166645,21.252796Q31.227916,21.211855,31.292905,21.177118Q31.357894,21.142381,31.425975,21.114181Q31.494056,21.0859806,31.56457,21.0645895Q31.635089999999998,21.0431983,31.70736,21.0288221Q31.77964,21.0144458,31.85297,21.00722291Q31.92631,21,32,21Q32.07369,21,32.14703,21.00722291Q32.22036,21.0144458,32.29264,21.0288221Q32.36491,21.0431983,32.43543,21.0645895Q32.50594,21.0859806,32.57402,21.114181Q32.64211,21.142381,32.7071,21.177118Q32.77208,21.211855,32.83336,21.252796Q32.89463,21.293736,32.95159,21.340484Q33.00855,21.387233,33.06066,21.43934Q33.11277,21.491447,33.15952,21.54841Q33.20626,21.605373,33.2472,21.666645Q33.28814,21.727916,33.32288,21.792905Q33.35762,21.857894,33.38582,21.925975Q33.41402,21.994056,33.43541,22.06457Q33.4568,22.135089999999998,33.47118,22.20736Q33.48555,22.27964,33.49278,22.35297Q33.5,22.42631,33.5,22.5Z" fill="#FFFFFF" fill-opacity="1"/></g><g><path d="" fill="#FFFFFF" fill-opacity="1"/></g><g><path d="M18.4969,33C27.6093,33,35,25.6107,35,16.5C35,7.38927,27.6156,0,18.5031,0C9.39066,0,2,7.38927,2,16.5C2,19.9119,3.03805,23.0876,4.81578,25.7226C5.32911,26.4833,5.90411,27.1987,6.53359,27.8618Q7.86716,31.3506,5,32.8987Q9.035,33.4151,11.19011,31.298C13.3928,32.3879,15.8736,33,18.4969,33Z" fill-rule="evenodd" fill="url(#master_svg1_5_51427)" fill-opacity="1"/></g><g><path d="M16.92793,18.5181L20.44144,18.5181C20.23874,15.34715,24,15.09067,24,11.616579999999999C24,8.4456,21.81532,7,19,7C16.97297,7,15.19369,7.955959,14,9.471499999999999L16.20721,11.56995C16.88288,10.75389,17.6036,10.35751,18.52703,10.35751C19.4955,10.35751,20.17117,10.89378,20.17117,11.98964C20.17117,14.1114,16.54505,14.857510000000001,16.92793,18.5181ZM18.68468,25C20.01351,25,20.98198,23.9974,20.98198,22.6218C20.98198,21.2461,20.01351,20.2902,18.68468,20.2902C17.35586,20.2902,16.38739,21.2461,16.38739,22.6218C16.38739,23.9974,17.33333,25,18.68468,25Z" fill="#FFFFFF" fill-opacity="1"/></g></g><g><g><path d="M0.00008392333984375,48.960330963134766C0.00008392333984375,48.960330963134766,24.000083923339844,57.92067096313477,24.000083923339844,57.92067096313477C24.000083923339844,57.92067096313477,24.000083923339844,60.00003096313476,24.000083923339844,60.00003096313476C24.000083923339844,60.00003096313476,0.00008392333984375,51.03967096313477,0.00008392333984375,51.03967096313477C0.00008392333984375,51.03967096313477,0.00008392333984375,48.960330963134766,0.00008392333984375,48.960330963134766C0.00008392333984375,48.960330963134766,0.00008392333984375,48.960330963134766,0.00008392333984375,48.960330963134766Z" fill="url(#master_svg2_5_43455)" fill-opacity="1"/></g><g><path d="M24,57.92067096313477C24,57.92067096313477,48,48.960330963134766,48,48.960330963134766C48,48.960330963134766,48,51.03967096313477,48,51.03967096313477C48,51.03967096313477,24,60.00003096313476,24,60.00003096313476C24,60.00003096313476,24,57.92067096313477,24,57.92067096313477C24,57.92067096313477,24,57.92067096313477,24,57.92067096313477Z" fill="url(#master_svg3_5_43458)" fill-opacity="1"/></g><g transform="matrix(0.9368373155593872,0.34976550936698914,-0.9368373155593872,0.3497653603553772,38.989397048950195,17.615013360977173)"><rect x="24" y="40" width="25.61810874938965" height="25.61810874938965" rx="0" fill="url(#master_svg4_5_51631)" fill-opacity="1"/></g><g><path d="M23.928557780456543,41.386224031448364C23.928557780456543,41.386224031448364,23.984857780456544,41.222099031448366,23.984857780456544,41.222099031448366C23.984857780456544,41.222099031448366,23.928557780456543,41.201867031448366,23.928557780456543,41.201867031448366C23.928557780456543,41.201867031448366,23.872257780456543,41.222099031448366,23.872257780456543,41.222099031448366C23.872257780456543,41.222099031448366,23.928557780456543,41.386224031448364,23.928557780456543,41.386224031448364C23.928557780456543,41.386224031448364,23.928557780456543,41.386224031448364,23.928557780456543,41.386224031448364ZM45.141757780456544,49.01045403144836C45.141757780456544,49.01045403144836,45.198057780456544,49.17458403144836,45.198057780456544,49.17458403144836C45.198057780456544,49.17458403144836,45.65475778045654,49.01045403144836,45.65475778045654,49.01045403144836C45.65475778045654,49.01045403144836,45.198057780456544,48.84632403144836,45.198057780456544,48.84632403144836C45.198057780456544,48.84632403144836,45.141757780456544,49.01045403144836,45.141757780456544,49.01045403144836C45.141757780456544,49.01045403144836,45.141757780456544,49.01045403144836,45.141757780456544,49.01045403144836ZM23.928557780456543,56.634724031448364C23.928557780456543,56.634724031448364,23.872257780456543,56.79882403144836,23.872257780456543,56.79882403144836C23.872257780456543,56.79882403144836,23.928557780456543,56.81912403144837,23.928557780456543,56.81912403144837C23.928557780456543,56.81912403144837,23.984857780456544,56.79882403144836,23.984857780456544,56.79882403144836C23.984857780456544,56.79882403144836,23.928557780456543,56.634724031448364,23.928557780456543,56.634724031448364C23.928557780456543,56.634724031448364,23.928557780456543,56.634724031448364,23.928557780456543,56.634724031448364ZM2.715357780456543,49.01045403144836C2.715357780456543,49.01045403144836,2.659064980456543,48.84632403144836,2.659064980456543,48.84632403144836C2.659064980456543,48.84632403144836,2.202414780456543,49.01045403144836,2.202414780456543,49.01045403144836C2.202414780456543,49.01045403144836,2.659064980456543,49.17458403144836,2.659064980456543,49.17458403144836C2.659064980456543,49.17458403144836,2.715357780456543,49.01045403144836,2.715357780456543,49.01045403144836C2.715357780456543,49.01045403144836,2.715357780456543,49.01045403144836,2.715357780456543,49.01045403144836ZM43.38845778045654,48.56465403144836C43.38845778045654,48.56465403144836,45.085457780456544,49.17458403144836,45.085457780456544,49.17458403144836C45.085457780456544,49.17458403144836,45.198057780456544,48.84632403144836,45.198057780456544,48.84632403144836C45.198057780456544,48.84632403144836,43.50105778045654,48.23639403144836,43.50105778045654,48.23639403144836C43.50105778045654,48.23639403144836,43.38845778045654,48.56465403144836,43.38845778045654,48.56465403144836C43.38845778045654,48.56465403144836,43.38845778045654,48.56465403144836,43.38845778045654,48.56465403144836ZM45.085457780456544,48.84632403144836C45.085457780456544,48.84632403144836,43.38845778045654,49.45630403144837,43.38845778045654,49.45630403144837C43.38845778045654,49.45630403144837,43.50105778045654,49.78451403144837,43.50105778045654,49.78451403144837C43.50105778045654,49.78451403144837,45.198057780456544,49.17458403144836,45.198057780456544,49.17458403144836C45.198057780456544,49.17458403144836,45.085457780456544,48.84632403144836,45.085457780456544,48.84632403144836C45.085457780456544,48.84632403144836,45.085457780456544,48.84632403144836,45.085457780456544,48.84632403144836ZM2.771650580456543,49.17458403144836C2.771650580456543,49.17458403144836,4.468707780456543,48.56465403144836,4.468707780456543,48.56465403144836C4.468707780456543,48.56465403144836,4.356127780456543,48.23639403144836,4.356127780456543,48.23639403144836C4.356127780456543,48.23639403144836,2.659064980456543,48.84632403144836,2.659064980456543,48.84632403144836C2.659064980456543,48.84632403144836,2.771650580456543,49.17458403144836,2.771650580456543,49.17458403144836C2.771650580456543,49.17458403144836,2.771650580456543,49.17458403144836,2.771650580456543,49.17458403144836ZM4.468707780456543,49.45630403144837C4.468707780456543,49.45630403144837,2.771650580456543,48.84632403144836,2.771650580456543,48.84632403144836C2.771650580456543,48.84632403144836,2.659064980456543,49.17458403144836,2.659064980456543,49.17458403144836C2.659064980456543,49.17458403144836,4.356127780456543,49.78451403144837,4.356127780456543,49.78451403144837C4.356127780456543,49.78451403144837,4.468707780456543,49.45630403144837,4.468707780456543,49.45630403144837C4.468707780456543,49.45630403144837,4.468707780456543,49.45630403144837,4.468707780456543,49.45630403144837ZM22.457457780456544,42.099295031448364C22.457457780456544,42.099295031448364,23.984857780456544,41.55034903144836,23.984857780456544,41.55034903144836C23.984857780456544,41.55034903144836,23.872257780456543,41.222099031448366,23.872257780456543,41.222099031448366C23.872257780456543,41.222099031448366,22.344957780456543,41.77104403144836,22.344957780456543,41.77104403144836C22.344957780456543,41.77104403144836,22.457457780456544,42.099295031448364,22.457457780456544,42.099295031448364C22.457457780456544,42.099295031448364,22.457457780456544,42.099295031448364,22.457457780456544,42.099295031448364ZM23.872257780456543,41.55034903144836C23.872257780456543,41.55034903144836,25.739057780456545,42.221280031448366,25.739057780456545,42.221280031448366C25.739057780456545,42.221280031448366,25.85165778045654,41.89303003144836,25.85165778045654,41.89303003144836C25.85165778045654,41.89303003144836,23.984857780456544,41.222099031448366,23.984857780456544,41.222099031448366C23.984857780456544,41.222099031448366,23.872257780456543,41.55034903144836,23.872257780456543,41.55034903144836C23.872257780456543,41.55034903144836,23.872257780456543,41.55034903144836,23.872257780456543,41.55034903144836ZM25.739057780456545,55.79962403144836C25.739057780456545,55.79962403144836,23.872257780456543,56.47052403144836,23.872257780456543,56.47052403144836C23.872257780456543,56.47052403144836,23.984857780456544,56.79882403144836,23.984857780456544,56.79882403144836C23.984857780456544,56.79882403144836,25.85165778045654,56.127924031448366,25.85165778045654,56.127924031448366C25.85165778045654,56.127924031448366,25.739057780456545,55.79962403144836,25.739057780456545,55.79962403144836C25.739057780456545,55.79962403144836,25.739057780456545,55.79962403144836,25.739057780456545,55.79962403144836ZM23.984857780456544,56.47052403144836C23.984857780456544,56.47052403144836,22.457457780456544,55.92162403144836,22.457457780456544,55.92162403144836C22.457457780456544,55.92162403144836,22.344957780456543,56.249924031448366,22.344957780456543,56.249924031448366C22.344957780456543,56.249924031448366,23.872257780456543,56.79882403144836,23.872257780456543,56.79882403144836C23.872257780456543,56.79882403144836,23.984857780456544,56.47052403144836,23.984857780456544,56.47052403144836C23.984857780456544,56.47052403144836,23.984857780456544,56.47052403144836,23.984857780456544,56.47052403144836Z" fill="#DEF0FF" fill-opacity="1"/></g></g></g></svg>