<svg xmlns="http://www.w3.org/2000/svg" xmlns:xlink="http://www.w3.org/1999/xlink" fill="none" version="1.1" width="48.00001525878906" height="60" viewBox="0 0 48.00001525878906 60"><defs><linearGradient x1="0.5" y1="-3.0616171314629196e-17" x2="0.5" y2="1" id="master_svg0_5_43455"><stop offset="0%" stop-color="#2083D3" stop-opacity="1"/><stop offset="100%" stop-color="#37C6EE" stop-opacity="1"/></linearGradient><linearGradient x1="0.5" y1="-3.0616171314629196e-17" x2="0.5" y2="1" id="master_svg1_5_43458"><stop offset="0%" stop-color="#2DA5C9" stop-opacity="1"/><stop offset="100%" stop-color="#2083D2" stop-opacity="1"/></linearGradient><linearGradient x1="0.5" y1="-3.0616171314629196e-17" x2="0.5" y2="1" id="master_svg2_5_51631"><stop offset="0%" stop-color="#144C69" stop-opacity="1"/><stop offset="100%" stop-color="#114464" stop-opacity="0.3700000047683716"/></linearGradient><linearGradient x1="0.5" y1="0" x2="1" y2="1.0238723754882812" id="master_svg3_99_1301"><stop offset="0%" stop-color="#FED897" stop-opacity="1"/><stop offset="97.85714149475098%" stop-color="#FED897" stop-opacity="0"/></linearGradient><linearGradient x1="0.287835955619812" y1="0.082374207675457" x2="1" y2="0.7604457139968872" id="master_svg4_99_1238"><stop offset="0%" stop-color="#1F58CE" stop-opacity="1"/><stop offset="100%" stop-color="#17FCFE" stop-opacity="1"/></linearGradient></defs><g><g><g><g><path d="M0.00008392333984375,48.960330963134766C0.00008392333984375,48.960330963134766,24.000083923339844,57.92067096313477,24.000083923339844,57.92067096313477C24.000083923339844,57.92067096313477,24.000083923339844,60.00003096313476,24.000083923339844,60.00003096313476C24.000083923339844,60.00003096313476,0.00008392333984375,51.03967096313477,0.00008392333984375,51.03967096313477C0.00008392333984375,51.03967096313477,0.00008392333984375,48.960330963134766,0.00008392333984375,48.960330963134766C0.00008392333984375,48.960330963134766,0.00008392333984375,48.960330963134766,0.00008392333984375,48.960330963134766Z" fill="url(#master_svg0_5_43455)" fill-opacity="1"/></g><g><path d="M24,57.92067096313477C24,57.92067096313477,48,48.960330963134766,48,48.960330963134766C48,48.960330963134766,48,51.03967096313477,48,51.03967096313477C48,51.03967096313477,24,60.00003096313476,24,60.00003096313476C24,60.00003096313476,24,57.92067096313477,24,57.92067096313477C24,57.92067096313477,24,57.92067096313477,24,57.92067096313477Z" fill="url(#master_svg1_5_43458)" fill-opacity="1"/></g><g transform="matrix(0.9368373155593872,0.34976550936698914,-0.9368373155593872,0.3497653603553772,38.989397048950195,17.615013360977173)"><rect x="24" y="40" width="25.61810874938965" height="25.61810874938965" rx="0" fill="url(#master_svg2_5_51631)" fill-opacity="1"/></g><g><path d="M23.928557780456543,41.386224031448364C23.928557780456543,41.386224031448364,23.984857780456544,41.222099031448366,23.984857780456544,41.222099031448366C23.984857780456544,41.222099031448366,23.928557780456543,41.201867031448366,23.928557780456543,41.201867031448366C23.928557780456543,41.201867031448366,23.872257780456543,41.222099031448366,23.872257780456543,41.222099031448366C23.872257780456543,41.222099031448366,23.928557780456543,41.386224031448364,23.928557780456543,41.386224031448364C23.928557780456543,41.386224031448364,23.928557780456543,41.386224031448364,23.928557780456543,41.386224031448364ZM45.141757780456544,49.01045403144836C45.141757780456544,49.01045403144836,45.198057780456544,49.17458403144836,45.198057780456544,49.17458403144836C45.198057780456544,49.17458403144836,45.65475778045654,49.01045403144836,45.65475778045654,49.01045403144836C45.65475778045654,49.01045403144836,45.198057780456544,48.84632403144836,45.198057780456544,48.84632403144836C45.198057780456544,48.84632403144836,45.141757780456544,49.01045403144836,45.141757780456544,49.01045403144836C45.141757780456544,49.01045403144836,45.141757780456544,49.01045403144836,45.141757780456544,49.01045403144836ZM23.928557780456543,56.634724031448364C23.928557780456543,56.634724031448364,23.872257780456543,56.79882403144836,23.872257780456543,56.79882403144836C23.872257780456543,56.79882403144836,23.928557780456543,56.81912403144837,23.928557780456543,56.81912403144837C23.928557780456543,56.81912403144837,23.984857780456544,56.79882403144836,23.984857780456544,56.79882403144836C23.984857780456544,56.79882403144836,23.928557780456543,56.634724031448364,23.928557780456543,56.634724031448364C23.928557780456543,56.634724031448364,23.928557780456543,56.634724031448364,23.928557780456543,56.634724031448364ZM2.715357780456543,49.01045403144836C2.715357780456543,49.01045403144836,2.659064980456543,48.84632403144836,2.659064980456543,48.84632403144836C2.659064980456543,48.84632403144836,2.202414780456543,49.01045403144836,2.202414780456543,49.01045403144836C2.202414780456543,49.01045403144836,2.659064980456543,49.17458403144836,2.659064980456543,49.17458403144836C2.659064980456543,49.17458403144836,2.715357780456543,49.01045403144836,2.715357780456543,49.01045403144836C2.715357780456543,49.01045403144836,2.715357780456543,49.01045403144836,2.715357780456543,49.01045403144836ZM43.38845778045654,48.56465403144836C43.38845778045654,48.56465403144836,45.085457780456544,49.17458403144836,45.085457780456544,49.17458403144836C45.085457780456544,49.17458403144836,45.198057780456544,48.84632403144836,45.198057780456544,48.84632403144836C45.198057780456544,48.84632403144836,43.50105778045654,48.23639403144836,43.50105778045654,48.23639403144836C43.50105778045654,48.23639403144836,43.38845778045654,48.56465403144836,43.38845778045654,48.56465403144836C43.38845778045654,48.56465403144836,43.38845778045654,48.56465403144836,43.38845778045654,48.56465403144836ZM45.085457780456544,48.84632403144836C45.085457780456544,48.84632403144836,43.38845778045654,49.45630403144837,43.38845778045654,49.45630403144837C43.38845778045654,49.45630403144837,43.50105778045654,49.78451403144837,43.50105778045654,49.78451403144837C43.50105778045654,49.78451403144837,45.198057780456544,49.17458403144836,45.198057780456544,49.17458403144836C45.198057780456544,49.17458403144836,45.085457780456544,48.84632403144836,45.085457780456544,48.84632403144836C45.085457780456544,48.84632403144836,45.085457780456544,48.84632403144836,45.085457780456544,48.84632403144836ZM2.771650580456543,49.17458403144836C2.771650580456543,49.17458403144836,4.468707780456543,48.56465403144836,4.468707780456543,48.56465403144836C4.468707780456543,48.56465403144836,4.356127780456543,48.23639403144836,4.356127780456543,48.23639403144836C4.356127780456543,48.23639403144836,2.659064980456543,48.84632403144836,2.659064980456543,48.84632403144836C2.659064980456543,48.84632403144836,2.771650580456543,49.17458403144836,2.771650580456543,49.17458403144836C2.771650580456543,49.17458403144836,2.771650580456543,49.17458403144836,2.771650580456543,49.17458403144836ZM4.468707780456543,49.45630403144837C4.468707780456543,49.45630403144837,2.771650580456543,48.84632403144836,2.771650580456543,48.84632403144836C2.771650580456543,48.84632403144836,2.659064980456543,49.17458403144836,2.659064980456543,49.17458403144836C2.659064980456543,49.17458403144836,4.356127780456543,49.78451403144837,4.356127780456543,49.78451403144837C4.356127780456543,49.78451403144837,4.468707780456543,49.45630403144837,4.468707780456543,49.45630403144837C4.468707780456543,49.45630403144837,4.468707780456543,49.45630403144837,4.468707780456543,49.45630403144837ZM22.457457780456544,42.099295031448364C22.457457780456544,42.099295031448364,23.984857780456544,41.55034903144836,23.984857780456544,41.55034903144836C23.984857780456544,41.55034903144836,23.872257780456543,41.222099031448366,23.872257780456543,41.222099031448366C23.872257780456543,41.222099031448366,22.344957780456543,41.77104403144836,22.344957780456543,41.77104403144836C22.344957780456543,41.77104403144836,22.457457780456544,42.099295031448364,22.457457780456544,42.099295031448364C22.457457780456544,42.099295031448364,22.457457780456544,42.099295031448364,22.457457780456544,42.099295031448364ZM23.872257780456543,41.55034903144836C23.872257780456543,41.55034903144836,25.739057780456545,42.221280031448366,25.739057780456545,42.221280031448366C25.739057780456545,42.221280031448366,25.85165778045654,41.89303003144836,25.85165778045654,41.89303003144836C25.85165778045654,41.89303003144836,23.984857780456544,41.222099031448366,23.984857780456544,41.222099031448366C23.984857780456544,41.222099031448366,23.872257780456543,41.55034903144836,23.872257780456543,41.55034903144836C23.872257780456543,41.55034903144836,23.872257780456543,41.55034903144836,23.872257780456543,41.55034903144836ZM25.739057780456545,55.79962403144836C25.739057780456545,55.79962403144836,23.872257780456543,56.47052403144836,23.872257780456543,56.47052403144836C23.872257780456543,56.47052403144836,23.984857780456544,56.79882403144836,23.984857780456544,56.79882403144836C23.984857780456544,56.79882403144836,25.85165778045654,56.127924031448366,25.85165778045654,56.127924031448366C25.85165778045654,56.127924031448366,25.739057780456545,55.79962403144836,25.739057780456545,55.79962403144836C25.739057780456545,55.79962403144836,25.739057780456545,55.79962403144836,25.739057780456545,55.79962403144836ZM23.984857780456544,56.47052403144836C23.984857780456544,56.47052403144836,22.457457780456544,55.92162403144836,22.457457780456544,55.92162403144836C22.457457780456544,55.92162403144836,22.344957780456543,56.249924031448366,22.344957780456543,56.249924031448366C22.344957780456543,56.249924031448366,23.872257780456543,56.79882403144836,23.872257780456543,56.79882403144836C23.872257780456543,56.79882403144836,23.984857780456544,56.47052403144836,23.984857780456544,56.47052403144836C23.984857780456544,56.47052403144836,23.984857780456544,56.47052403144836,23.984857780456544,56.47052403144836Z" fill="#DEF0FF" fill-opacity="1"/></g></g></g><g><path d="M37,11.5Q37,11.65957,36.9922,11.81894Q36.984300000000005,11.97831,36.9687,12.13711Q36.9531,12.29591,36.9296,12.45375Q36.9062,12.61159,36.8751,12.76809Q36.844,12.92459,36.8052,13.07937Q36.766400000000004,13.23415,36.7201,13.38685Q36.6738,13.53954,36.620000000000005,13.68978Q36.5663,13.84002,36.5052,13.98744Q36.4441,14.13486,36.3759,14.27911Q36.3077,14.42335,36.2325,14.56408Q36.1573,14.7048,36.075199999999995,14.84167Q35.9932,14.97853,35.9045,15.1112Q35.8159,15.2439,35.7208,15.372Q35.6258,15.5002,35.5246,15.6236Q35.4233,15.7469,35.316199999999995,15.8651Q35.209,15.9834,35.096199999999996,16.0962Q34.9834,16.209,34.8651,16.316200000000002Q34.7469,16.423299999999998,34.623599999999996,16.5246Q34.5002,16.625799999999998,34.372,16.7208Q34.2439,16.8159,34.1112,16.904600000000002Q33.9785,16.9932,33.8417,17.075200000000002Q33.7048,17.1573,33.564099999999996,17.2325Q33.4234,17.3077,33.2791,17.3759Q33.1349,17.444200000000002,32.9874,17.505200000000002Q32.84,17.5663,32.6898,17.619999999999997Q32.539500000000004,17.6738,32.3868,17.720100000000002Q32.2342,17.7664,32.0794,17.8052Q31.924599999999998,17.844,31.7681,17.8751Q31.6116,17.9062,31.453699999999998,17.9296Q31.2959,17.9531,31.1371,17.9687Q30.9783,17.984299999999998,30.8189,17.9922Q30.659599999999998,18,30.5,18Q30.340400000000002,18,30.1811,17.9922Q30.0217,17.984299999999998,29.8629,17.9687Q29.7041,17.9531,29.546300000000002,17.9296Q29.3884,17.9062,29.2319,17.8751Q29.075400000000002,17.844,28.92063,17.8052Q28.76584,17.7664,28.613149999999997,17.720100000000002Q28.46045,17.6738,28.310209999999998,17.619999999999997Q28.159979999999997,17.5663,28.01256,17.505200000000002Q27.86514,17.444200000000002,27.72089,17.3759Q27.576639999999998,17.3077,27.43592,17.2325Q27.2952,17.1573,27.15833,17.075200000000002Q27.02147,16.9932,26.88879,16.9045Q26.75612,16.8159,26.62795,16.7208Q26.49979,16.625799999999998,26.37644,16.5246Q26.2531,16.423299999999998,26.13487,16.316200000000002Q26.01664,16.209,25.90381,16.0962Q25.79098,15.9834,25.68382,15.8651Q25.57666,15.7469,25.47543,15.6236Q25.374200000000002,15.5002,25.27915,15.372Q25.1841,15.2439,25.09545,15.1112Q25.0068,14.97853,24.92476,14.84167Q24.84273,14.7048,24.76751,14.56408Q24.69229,14.42335,24.62407,14.27911Q24.55585,14.13486,24.49478,13.98744Q24.43372,13.84002,24.37996,13.68978Q24.32621,13.53954,24.27989,13.38685Q24.23357,13.23415,24.1948,13.07937Q24.15603,12.92459,24.1249,12.76809Q24.09377,12.61159,24.07035,12.45375Q24.04694,12.29591,24.0313,12.13711Q24.01566,11.97831,24.00783,11.81894Q24,11.65957,24,11.5Q24,11.34043,24.00783,11.18106Q24.01566,11.02169,24.0313,10.86289Q24.04694,10.70409,24.07035,10.54625Q24.09377,10.38841,24.1249,10.23191Q24.15603,10.07541,24.1948,9.92063Q24.23357,9.76584,24.27989,9.613150000000001Q24.32621,9.46045,24.37996,9.31021Q24.43372,9.159980000000001,24.49478,9.01256Q24.55585,8.86514,24.62407,8.72089Q24.69229,8.57665,24.76751,8.43592Q24.84273,8.2952,24.92476,8.15833Q25.0068,8.02147,25.09545,7.88879Q25.1841,7.75612,25.27915,7.62795Q25.374200000000002,7.49979,25.47543,7.3764400000000006Q25.57666,7.2531,25.68382,7.134869999999999Q25.79098,7.016640000000001,25.90381,6.90381Q26.01664,6.79098,26.13487,6.68382Q26.2531,6.57666,26.37644,6.47543Q26.49979,6.3742,26.62795,6.27915Q26.75612,6.1841,26.88879,6.09545Q27.02147,6.0068,27.15833,5.924764Q27.2952,5.842731,27.43592,5.767512Q27.576639999999998,5.692293,27.72089,5.62407Q27.86514,5.555846,28.01256,5.494783Q28.159979999999997,5.43372,28.31022,5.379964Q28.46045,5.326207,28.613149999999997,5.279888Q28.76584,5.233568,28.92063,5.194797Q29.075400000000002,5.156025,29.2319,5.124896Q29.3884,5.0937659,29.546300000000002,5.0703527Q29.7041,5.0469395,29.8629,5.0312993Q30.0217,5.0156591,30.1811,5.00782953Q30.340400000000002,5,30.5,5Q30.659599999999998,5,30.8189,5.00782953Q30.9783,5.0156591,31.1371,5.0312993Q31.2959,5.0469395,31.453699999999998,5.0703527Q31.6116,5.0937659,31.7681,5.124896Q31.924599999999998,5.156025,32.0794,5.194797Q32.2342,5.233568,32.3868,5.279888Q32.539500000000004,5.326207,32.6898,5.379964Q32.84,5.43372,32.9874,5.494783Q33.1349,5.555846,33.2791,5.62407Q33.4234,5.692293,33.564099999999996,5.767512Q33.7048,5.842731,33.8417,5.924764Q33.9785,6.0068,34.1112,6.09545Q34.2439,6.1841,34.372,6.27915Q34.5002,6.3742,34.623599999999996,6.47543Q34.7469,6.57666,34.8651,6.68382Q34.9834,6.79098,35.096199999999996,6.90381Q35.209,7.016640000000001,35.316199999999995,7.134869999999999Q35.4233,7.2531,35.5246,7.3764400000000006Q35.6258,7.49979,35.7208,7.62795Q35.8159,7.75612,35.9045,7.88879Q35.9932,8.02147,36.075199999999995,8.15833Q36.1573,8.2952,36.2325,8.43592Q36.3077,8.57665,36.3759,8.72089Q36.4441,8.86514,36.5052,9.01256Q36.5663,9.159980000000001,36.620000000000005,9.310220000000001Q36.6738,9.46045,36.7201,9.613150000000001Q36.766400000000004,9.76584,36.8052,9.92063Q36.844,10.07541,36.8751,10.23191Q36.9062,10.38841,36.9296,10.54625Q36.9531,10.70409,36.9687,10.86289Q36.984300000000005,11.02169,36.9922,11.18106Q37,11.34043,37,11.5ZM40.2875,37L23.7125,37C21.10708,37,19,34.8333,19,32.1667C19,26,23.875,21,29.8875,21L34.1125,21C40.125,21,45,26,45,32.1667C45,34.8333,42.8875,37,40.2875,37Z" fill="url(#master_svg3_99_1301)" fill-opacity="1"/></g><g><path d="M29,9Q29,9.22094,28.9892,9.44161Q28.9783,9.66228,28.9567,9.88215Q28.935,10.102,28.9026,10.3206Q28.8702,10.5391,28.8271,10.7558Q28.784,10.9725,28.7303,11.1868Q28.6766,11.4011,28.6125,11.6126Q28.5483,11.824,28.4739,12.032Q28.3995,12.24,28.3149,12.4441Q28.2304,12.6483,28.1359,12.848Q28.0414,13.0477,27.9373,13.2426Q27.8331,13.4374,27.7196,13.6269Q27.606,13.8164,27.4832,14.0001Q27.3605,14.1838,27.2289,14.3613Q27.0973,14.5388,26.9571,14.7095Q26.8169,14.8803,26.6686,15.044Q26.5202,15.2077,26.364,15.364Q26.2077,15.5202,26.044,15.6686Q25.8803,15.8169,25.7095,15.9571Q25.5387,16.0973,25.3613,16.2289Q25.1838,16.3605,25.0001,16.4832Q24.8164,16.606,24.6269,16.7196Q24.4374,16.8331,24.2426,16.9373Q24.0477,17.0414,23.848,17.1359Q23.6483,17.2304,23.4441,17.3149Q23.24,17.3995,23.032,17.4739Q22.824,17.5483,22.6126,17.6125Q22.4011,17.6766,22.1868,17.7303Q21.9725,17.784,21.7558,17.8271Q21.5391,17.8702,21.3206,17.9026Q21.102,17.935,20.8822,17.9567Q20.6623,17.9783,20.4416,17.9892Q20.2209,18,20,18Q19.7791,18,19.5584,17.9892Q19.3377,17.9783,19.1178,17.9567Q18.898,17.935,18.6794,17.9026Q18.460900000000002,17.8702,18.2442,17.8271Q18.0275,17.784,17.813200000000002,17.7303Q17.5989,17.6766,17.3874,17.6125Q17.176000000000002,17.5483,16.968,17.4739Q16.759999999999998,17.3995,16.555799999999998,17.3149Q16.3517,17.2304,16.152,17.1359Q15.9523,17.0414,15.7574,16.9373Q15.5626,16.8331,15.3731,16.7196Q15.1836,16.606,14.9999,16.4832Q14.8162,16.3605,14.6387,16.2289Q14.4612,16.0973,14.2905,15.9571Q14.1197,15.8169,13.956,15.6686Q13.7923,15.5202,13.636,15.364Q13.4798,15.2077,13.3314,15.044Q13.1831,14.8803,13.0429,14.7095Q12.90274,14.5388,12.77113,14.3613Q12.63952,14.1838,12.51677,14.0001Q12.39403,13.8164,12.28044,13.6269Q12.16686,13.4374,12.06271,13.2426Q11.95856,13.0477,11.8641,12.848Q11.76963,12.6483,11.68508,12.4441Q11.60053,12.24,11.5261,12.032Q11.45167,11.824,11.38754,11.6126Q11.3234,11.4011,11.26972,11.1868Q11.21603,10.9725,11.17293,10.7558Q11.12983,10.5391,11.09741,10.3206Q11.06499,10.102,11.04334,9.88215Q11.02168,9.66228,11.01084,9.44161Q11,9.22094,11,9Q11,8.77906,11.01084,8.55839Q11.02168,8.33772,11.04334,8.11785Q11.06499,7.89797,11.09741,7.67943Q11.12983,7.46088,11.17293,7.24419Q11.21603,7.02749,11.26972,6.81318Q11.3234,6.59886,11.38754,6.38744Q11.45167,6.17601,11.5261,5.96799Q11.60053,5.75997,11.68508,5.55585Q11.76963,5.35173,11.8641,5.152Q11.95856,4.95228,12.06271,4.75743Q12.16686,4.56258,12.28044,4.37308Q12.39403,4.18357,12.51677,3.99987Q12.63952,3.81616,12.77113,3.63871Q12.90274,3.46125,13.0429,3.29046Q13.1831,3.11967,13.3314,2.95597Q13.4798,2.79227,13.636,2.63604Q13.7923,2.47981,13.956,2.33144Q14.1197,2.18307,14.2905,2.04291Q14.4612,1.90274,14.6387,1.77113Q14.8162,1.63952,14.9999,1.51677Q15.1836,1.39403,15.3731,1.28044Q15.5626,1.16686,15.7574,1.06271Q15.9523,0.958559,16.152,0.864096Q16.3517,0.769633,16.555799999999998,0.685084Q16.759999999999998,0.600535,16.968,0.526103Q17.176000000000002,0.451672,17.3874,0.387537Q17.5989,0.323402,17.813200000000002,0.269719Q18.0275,0.216035,18.2442,0.172932Q18.460900000000002,0.12983,18.6794,0.0974114Q18.898,0.0649931,19.1178,0.0433375Q19.3377,0.0216818,19.5584,0.0108409Q19.7791,0,20,0Q20.2209,0,20.4416,0.0108409Q20.6623,0.0216818,20.8822,0.0433375Q21.102,0.0649931,21.3206,0.0974114Q21.5391,0.12983,21.7558,0.172932Q21.9725,0.216035,22.1868,0.269719Q22.4011,0.323402,22.6126,0.387537Q22.824,0.451672,23.032,0.526103Q23.24,0.600535,23.4441,0.685084Q23.6483,0.769633,23.848,0.864096Q24.0477,0.958559,24.2426,1.06271Q24.4374,1.16686,24.6269,1.28044Q24.8164,1.39403,25.0001,1.51677Q25.1838,1.63952,25.3613,1.77113Q25.5388,1.90274,25.7095,2.04291Q25.8803,2.18307,26.044,2.33144Q26.2077,2.47981,26.364,2.63604Q26.5202,2.79227,26.6686,2.95597Q26.8169,3.11967,26.9571,3.29046Q27.0973,3.46125,27.2289,3.63871Q27.3605,3.81616,27.4832,3.99987Q27.606,4.18357,27.7196,4.37308Q27.8331,4.56258,27.9373,4.75743Q28.0414,4.95228,28.1359,5.152Q28.2304,5.35173,28.3149,5.55585Q28.3995,5.75997,28.4739,5.96799Q28.5483,6.17601,28.6125,6.38744Q28.6766,6.59886,28.7303,6.81318Q28.784,7.02749,28.8271,7.24419Q28.8702,7.46088,28.9026,7.67943Q28.935,7.89797,28.9567,8.11785Q28.9783,8.33772,28.9892,8.55839Q29,8.77906,29,9ZM30.7994,42L9.20064,42C5.77885,42,3,39.2109,3,35.7766C3,27.6172,9.59295,21,17.7224,21L22.2776,21C30.407,21,37,27.6172,37,35.7766C37,39.2109,34.221199999999996,42,30.7994,42Z" fill="url(#master_svg4_99_1238)" fill-opacity="1"/></g></g></svg>