<svg xmlns="http://www.w3.org/2000/svg" xmlns:xlink="http://www.w3.org/1999/xlink" fill="none" version="1.1" width="48.00001525878906" height="60.001220703125" viewBox="0 0 48.00001525878906 60.001220703125"><defs><linearGradient x1="0.5" y1="-3.0616171314629196e-17" x2="0.5" y2="1" id="master_svg0_5_43455"><stop offset="0%" stop-color="#2083D3" stop-opacity="1"/><stop offset="100%" stop-color="#37C6EE" stop-opacity="1"/></linearGradient><linearGradient x1="0.5" y1="-3.0616171314629196e-17" x2="0.5" y2="1" id="master_svg1_5_43458"><stop offset="0%" stop-color="#2DA5C9" stop-opacity="1"/><stop offset="100%" stop-color="#2083D2" stop-opacity="1"/></linearGradient><linearGradient x1="0.5" y1="-3.0616171314629196e-17" x2="0.5" y2="1" id="master_svg2_5_51631"><stop offset="0%" stop-color="#144C69" stop-opacity="1"/><stop offset="100%" stop-color="#114464" stop-opacity="0.3700000047683716"/></linearGradient><linearGradient x1="0.12681812047958374" y1="0.3352088928222656" x2="0.8989359140396118" y2="0.9014648199081421" id="master_svg3_99_1760"><stop offset="0%" stop-color="#FFCE00" stop-opacity="1"/><stop offset="100%" stop-color="#FBCB44" stop-opacity="0"/></linearGradient><linearGradient x1="0.12681812047958374" y1="0.3352088928222656" x2="0.8989359140396118" y2="0.9014648199081421" id="master_svg4_99_1672"><stop offset="0%" stop-color="#1F57CD" stop-opacity="1"/><stop offset="100%" stop-color="#17FCFE" stop-opacity="1"/></linearGradient></defs><g><g><g><g><path d="M0.00008392333984375,48.961551666259766C0.00008392333984375,48.961551666259766,24.000083923339844,57.92189166625977,24.000083923339844,57.92189166625977C24.000083923339844,57.92189166625977,24.000083923339844,60.00125166625976,24.000083923339844,60.00125166625976C24.000083923339844,60.00125166625976,0.00008392333984375,51.04089166625977,0.00008392333984375,51.04089166625977C0.00008392333984375,51.04089166625977,0.00008392333984375,48.961551666259766,0.00008392333984375,48.961551666259766C0.00008392333984375,48.961551666259766,0.00008392333984375,48.961551666259766,0.00008392333984375,48.961551666259766Z" fill="url(#master_svg0_5_43455)" fill-opacity="1"/></g><g><path d="M24,57.92189166625977C24,57.92189166625977,48,48.961551666259766,48,48.961551666259766C48,48.961551666259766,48,51.04089166625977,48,51.04089166625977C48,51.04089166625977,24,60.00125166625976,24,60.00125166625976C24,60.00125166625976,24,57.92189166625977,24,57.92189166625977C24,57.92189166625977,24,57.92189166625977,24,57.92189166625977Z" fill="url(#master_svg1_5_43458)" fill-opacity="1"/></g><g transform="matrix(0.9368373155593872,0.34976550936698914,-0.9368373155593872,0.3497653603553772,38.990540649188915,17.61580710443377)"><rect x="24" y="40.001220703125" width="25.61810874938965" height="25.61810874938965" rx="0" fill="url(#master_svg2_5_51631)" fill-opacity="1"/></g><g><path d="M23.928557780456543,41.387444734573364C23.928557780456543,41.387444734573364,23.984857780456544,41.223319734573366,23.984857780456544,41.223319734573366C23.984857780456544,41.223319734573366,23.928557780456543,41.203087734573366,23.928557780456543,41.203087734573366C23.928557780456543,41.203087734573366,23.872257780456543,41.223319734573366,23.872257780456543,41.223319734573366C23.872257780456543,41.223319734573366,23.928557780456543,41.387444734573364,23.928557780456543,41.387444734573364C23.928557780456543,41.387444734573364,23.928557780456543,41.387444734573364,23.928557780456543,41.387444734573364ZM45.141757780456544,49.01167473457336C45.141757780456544,49.01167473457336,45.198057780456544,49.17580473457336,45.198057780456544,49.17580473457336C45.198057780456544,49.17580473457336,45.65475778045654,49.01167473457336,45.65475778045654,49.01167473457336C45.65475778045654,49.01167473457336,45.198057780456544,48.84754473457336,45.198057780456544,48.84754473457336C45.198057780456544,48.84754473457336,45.141757780456544,49.01167473457336,45.141757780456544,49.01167473457336C45.141757780456544,49.01167473457336,45.141757780456544,49.01167473457336,45.141757780456544,49.01167473457336ZM23.928557780456543,56.635944734573364C23.928557780456543,56.635944734573364,23.872257780456543,56.80004473457336,23.872257780456543,56.80004473457336C23.872257780456543,56.80004473457336,23.928557780456543,56.82034473457337,23.928557780456543,56.82034473457337C23.928557780456543,56.82034473457337,23.984857780456544,56.80004473457336,23.984857780456544,56.80004473457336C23.984857780456544,56.80004473457336,23.928557780456543,56.635944734573364,23.928557780456543,56.635944734573364C23.928557780456543,56.635944734573364,23.928557780456543,56.635944734573364,23.928557780456543,56.635944734573364ZM2.715357780456543,49.01167473457336C2.715357780456543,49.01167473457336,2.659064980456543,48.84754473457336,2.659064980456543,48.84754473457336C2.659064980456543,48.84754473457336,2.202414780456543,49.01167473457336,2.202414780456543,49.01167473457336C2.202414780456543,49.01167473457336,2.659064980456543,49.17580473457336,2.659064980456543,49.17580473457336C2.659064980456543,49.17580473457336,2.715357780456543,49.01167473457336,2.715357780456543,49.01167473457336C2.715357780456543,49.01167473457336,2.715357780456543,49.01167473457336,2.715357780456543,49.01167473457336ZM43.38845778045654,48.56587473457336C43.38845778045654,48.56587473457336,45.085457780456544,49.17580473457336,45.085457780456544,49.17580473457336C45.085457780456544,49.17580473457336,45.198057780456544,48.84754473457336,45.198057780456544,48.84754473457336C45.198057780456544,48.84754473457336,43.50105778045654,48.23761473457336,43.50105778045654,48.23761473457336C43.50105778045654,48.23761473457336,43.38845778045654,48.56587473457336,43.38845778045654,48.56587473457336C43.38845778045654,48.56587473457336,43.38845778045654,48.56587473457336,43.38845778045654,48.56587473457336ZM45.085457780456544,48.84754473457336C45.085457780456544,48.84754473457336,43.38845778045654,49.45752473457337,43.38845778045654,49.45752473457337C43.38845778045654,49.45752473457337,43.50105778045654,49.78573473457337,43.50105778045654,49.78573473457337C43.50105778045654,49.78573473457337,45.198057780456544,49.17580473457336,45.198057780456544,49.17580473457336C45.198057780456544,49.17580473457336,45.085457780456544,48.84754473457336,45.085457780456544,48.84754473457336C45.085457780456544,48.84754473457336,45.085457780456544,48.84754473457336,45.085457780456544,48.84754473457336ZM2.771650580456543,49.17580473457336C2.771650580456543,49.17580473457336,4.468707780456543,48.56587473457336,4.468707780456543,48.56587473457336C4.468707780456543,48.56587473457336,4.356127780456543,48.23761473457336,4.356127780456543,48.23761473457336C4.356127780456543,48.23761473457336,2.659064980456543,48.84754473457336,2.659064980456543,48.84754473457336C2.659064980456543,48.84754473457336,2.771650580456543,49.17580473457336,2.771650580456543,49.17580473457336C2.771650580456543,49.17580473457336,2.771650580456543,49.17580473457336,2.771650580456543,49.17580473457336ZM4.468707780456543,49.45752473457337C4.468707780456543,49.45752473457337,2.771650580456543,48.84754473457336,2.771650580456543,48.84754473457336C2.771650580456543,48.84754473457336,2.659064980456543,49.17580473457336,2.659064980456543,49.17580473457336C2.659064980456543,49.17580473457336,4.356127780456543,49.78573473457337,4.356127780456543,49.78573473457337C4.356127780456543,49.78573473457337,4.468707780456543,49.45752473457337,4.468707780456543,49.45752473457337C4.468707780456543,49.45752473457337,4.468707780456543,49.45752473457337,4.468707780456543,49.45752473457337ZM22.457457780456544,42.100515734573364C22.457457780456544,42.100515734573364,23.984857780456544,41.55156973457336,23.984857780456544,41.55156973457336C23.984857780456544,41.55156973457336,23.872257780456543,41.223319734573366,23.872257780456543,41.223319734573366C23.872257780456543,41.223319734573366,22.344957780456543,41.77226473457336,22.344957780456543,41.77226473457336C22.344957780456543,41.77226473457336,22.457457780456544,42.100515734573364,22.457457780456544,42.100515734573364C22.457457780456544,42.100515734573364,22.457457780456544,42.100515734573364,22.457457780456544,42.100515734573364ZM23.872257780456543,41.55156973457336C23.872257780456543,41.55156973457336,25.739057780456545,42.222500734573366,25.739057780456545,42.222500734573366C25.739057780456545,42.222500734573366,25.85165778045654,41.89425073457336,25.85165778045654,41.89425073457336C25.85165778045654,41.89425073457336,23.984857780456544,41.223319734573366,23.984857780456544,41.223319734573366C23.984857780456544,41.223319734573366,23.872257780456543,41.55156973457336,23.872257780456543,41.55156973457336C23.872257780456543,41.55156973457336,23.872257780456543,41.55156973457336,23.872257780456543,41.55156973457336ZM25.739057780456545,55.80084473457336C25.739057780456545,55.80084473457336,23.872257780456543,56.47174473457336,23.872257780456543,56.47174473457336C23.872257780456543,56.47174473457336,23.984857780456544,56.80004473457336,23.984857780456544,56.80004473457336C23.984857780456544,56.80004473457336,25.85165778045654,56.129144734573366,25.85165778045654,56.129144734573366C25.85165778045654,56.129144734573366,25.739057780456545,55.80084473457336,25.739057780456545,55.80084473457336C25.739057780456545,55.80084473457336,25.739057780456545,55.80084473457336,25.739057780456545,55.80084473457336ZM23.984857780456544,56.47174473457336C23.984857780456544,56.47174473457336,22.457457780456544,55.92284473457336,22.457457780456544,55.92284473457336C22.457457780456544,55.92284473457336,22.344957780456543,56.251144734573366,22.344957780456543,56.251144734573366C22.344957780456543,56.251144734573366,23.872257780456543,56.80004473457336,23.872257780456543,56.80004473457336C23.872257780456543,56.80004473457336,23.984857780456544,56.47174473457336,23.984857780456544,56.47174473457336C23.984857780456544,56.47174473457336,23.984857780456544,56.47174473457336,23.984857780456544,56.47174473457336Z" fill="#DEF0FF" fill-opacity="1"/></g></g></g><g><g><path d="M37.88880348815918,17.0306426864624Q40.64220348815918,7.2410036864624026,35.99390348815918,6.740042686462402C34.02490348815918,6.740042686462402,34.43160348815918,8.241322686462402,34.28310348815918,8.490192686462402Q34.28310348815918,13.279832686462402,29.00534348815918,17.0306426864624L29.00534348815918,30.6079426864624C29.00534348815918,31.948642686462403,30.90178348815918,32.4303426864624,31.644203488159178,32.4303426864624L42.31270348815918,32.4303426864624Q43.31660348815918,32.4303426864624,44.13330348815918,29.893442686462404Q46.775403488159185,21.2470426864624,46.775403488159185,18.6764426864624Q46.775403488159185,16.889342686462403,44.990303488159185,17.032242686462403L37.89040348815918,17.032242686462403L37.88880348815918,17.0306426864624ZM26.09208348815918,17.035442686462403L21.840827488159178,17.035442686462403Q20.96281538815918,17.035442686462403,20.94990348815918,17.865542686462405L21.82630148815918,31.560142686462402Q21.82630148815918,32.4303426864624,22.73336348815918,32.4303426864624L26.41327348815918,32.4303426864624Q27.17991348815918,32.4303426864624,27.17184348815918,31.853942686462403L27.17184348815918,18.0742426864624Q27.17184348815918,17.022642686462405,26.09208348815918,17.035442686462403Z" fill="url(#master_svg3_99_1760)" fill-opacity="1"/></g><g><path d="M25.5284,14.8208Q29.5156,0.7215,22.7846,0C19.9333,0,20.5222,2.16219,20.3072,2.52063Q20.3072,9.41881,12.6647,14.8208L12.6647,34.3753C12.6647,36.3062,15.4109,37,16.486,37L31.9345,37Q33.3882,37,34.5708,33.3463Q38.3967,20.8934,38.3967,17.1911Q38.3967,14.6173,35.8118,14.8231L25.5307,14.8231L25.5284,14.8208ZM8.446159999999999,14.8278L2.2901100000000003,14.8278Q1.0186971,14.8278,1,16.0233L2.26907,35.7466Q2.26907,37,3.58255,37L8.911249999999999,37Q10.0214,37,10.00971,36.1698L10.00971,16.3239Q10.00971,14.8092,8.446159999999999,14.8278Z" fill="url(#master_svg4_99_1672)" fill-opacity="1"/></g></g></g></svg>